<?xml version="1.0" encoding="UTF-8"?>
<svg width="412px" height="156px" viewBox="0 0 412 156" version="1.1" xmlns="http://www.w3.org/2000/svg" xmlns:xlink="http://www.w3.org/1999/xlink">
    <title>logo-Universal</title>
    <g id="Page-1" stroke="none" stroke-width="1" fill="none" fill-rule="evenodd">
        <g id="logo-Universal" fill="#FFFFFF">
            <path d="M206.704,34.734 C207.048,34.2176 208.09,34.5619 208.823,34.5795 C209.807,34.6016 209.573,36.0582 210.937,35.7713 C212.297,35.48 212.314,37.0646 214.256,37.0073 C216.207,36.9455 213.868,37.687 213.868,37.687 C213.868,37.687 212.663,37.1044 211.886,37.4972 C211.471,37.7047 212.036,37.378 211.343,36.813 C210.275,35.9391 210.421,36.9764 208.629,35.4535 C207.357,34.3765 206.139,35.5815 206.704,34.734 Z" id="Path"></path>
            <path d="M192.072,36.7423 C190.92,34.8796 191.781,32.5623 193.087,30.3067 C194.045,28.647 196.609,27.9143 198.839,28.7839 C201.341,26.8108 201.942,28.9339 204.157,27.9761 C207.071,26.7137 205.442,31.3263 208.258,32.4872 C209.423,29.3798 205.605,27.0447 207.998,25.5837 C209.71,24.5376 211.004,23.8887 211.705,22.4939 C212.703,20.4987 213.091,19.0421 213.864,18.7817 C215.638,18.1726 215.254,16.4864 215.254,16.4864 C215.254,16.4864 217.148,17.0381 218.613,15.661 C217.492,15.0518 215.85,14.5354 216.287,13.326 C216.795,11.9046 220.6,14.7958 221.725,12.4608 C219.461,11.4765 217.148,9.33127 215.766,8.8369 C214.822,9.87419 214.226,9.45928 213.003,8.4926 C210.933,6.855 210.761,8.40874 209.463,7.28758 C208.435,9.35775 209.993,9.19443 210.465,9.71087 C211.794,11.1719 209.119,8.40874 209.379,12.1165 C209.445,13.0788 208.024,13.2597 206.965,11.1719 C206.413,10.0816 202.017,10.3068 201.35,9.26947 C201.959,8.06003 207.137,3.74753 215.078,4.78483 C203.535,0.247213 187.945,5.19975 187.786,6.92121 C186.232,7.89671 186.766,9.01346 185.989,9.26947 C184.643,9.7197 183.182,13.8247 183.182,13.8247 C183.182,13.8247 184.016,14.3809 181.408,17.303 C179.258,19.7086 178.622,23.3546 178.622,23.3546 C178.622,23.3546 180.044,25.9545 179.77,28.9472 C179.571,31.2336 179.474,29.5387 180.467,31.1939 C181.046,32.165 181.677,35.5461 182.061,34.2263 C182.794,31.7104 180.723,29.3798 181.068,26.877 C181.147,27.1904 181.862,25.8838 181.836,27.0668 C181.761,30.1566 185.641,36.1155 185.641,36.1155 C185.641,36.1155 184.193,37.5898 185.711,37.5898 L185.323,38.5035 C185.323,38.5035 186.448,38.4373 187.172,39.0288 C187.901,39.6247 188.527,40.3574 189.189,40.3574 L200.353,40.3574 C200.353,40.3574 201.147,36.9719 201.796,36.3936 C202.445,35.8198 200.498,36.3936 199.924,35.8198 C199.346,35.2416 198.984,36.323 198.697,36.8968 C198.406,37.4751 198.048,38.4859 197.183,38.7728 C196.318,39.0597 194.235,39.2054 193.802,39.2054 C193.37,39.2054 192.072,36.7423 192.072,36.7423 Z" id="Path" fill-rule="nonzero"></path>
            <path d="M244.373,72.9901 C243.941,72.4163 244.444,71.5467 244.444,71.5467 L212.968,71.5467 L216.477,74.6101 C217.245,74.9191 218.216,75.6915 218.662,76.87 C219.712,79.6553 218.15,77.3997 218.15,81.6107 C218.15,85.4818 217.06,84.855 217.06,84.855 C217.06,84.855 216.826,89.4324 214.455,92.2441 C212.95,93.7581 214.12,95.0117 214.12,95.0117 C214.12,95.0117 213.612,95.2986 212.875,98.6179 C212.632,99.6905 214.009,101.35 215.201,100.935 C216.097,100.622 213.03,100.326 216.358,98.9269 C217.638,98.384 216.592,97.3644 216.592,97.3644 C216.592,97.3644 218.741,97.1966 219.955,93.9435 C222.1,94.2569 221.306,92.9415 225.72,91.9881 C226.885,91.7409 227.132,91.3878 226.987,90.2931 C226.841,89.194 228.426,90.452 232.8,85.9894 C236.243,82.4714 235.003,81.6769 237.386,80.4013 C239.906,79.0594 240.136,80.516 240.979,79.4258 C242.904,76.9186 242.228,77.0819 243.027,75.484 L243.597,74.6057 C243.597,74.6057 244.802,73.5639 244.373,72.9901 Z" id="Path" fill-rule="nonzero"></path>
            <polygon id="Path" fill-rule="nonzero" points="222.374 39.4039 221.672 39.8232 221.531 39.1258"></polygon>
            <path d="M219.858,38.8479 C218.732,39.0906 217.545,38.8479 216.499,39.6865 L215.797,39.1259 L215.378,39.1259 C216.358,38.3226 214.817,37.4839 216.499,37.4486 C217.792,37.4839 218.732,38.3888 219.858,38.8479 Z" id="Path" fill-rule="nonzero"></path>
            <path d="M152.24,39.8499 C159.509,17.3648 176.72,8.72284e-05 205.481,8.72284e-05 C232.208,8.72284e-05 251.846,17.6032 258.971,40.3398 C251.537,19.1481 230.416,3.86236 205.521,3.86236 C180.811,3.86236 159.823,18.9142 152.24,39.8499 Z M258.851,74.2439 C251.617,96.7863 231.268,114.323 205.481,114.323 C178.128,114.323 159.748,97.0247 152.354,74.7339 C160.048,95.4974 180.939,110.39 205.521,110.39 C230.284,110.39 251.317,95.2635 258.851,74.2439 Z" id="Shape"></path>
            <path d="M109.274,45.354 L100.503,45.354 L101.814,46.9122 L101.814,58.4328 C101.814,61.0194 100.101,62.1097 97.5367,62.1097 C94.9809,62.1097 93.2639,61.0194 93.2639,58.4328 L93.2639,46.9122 L94.5749,45.354 L85.8042,45.354 L87.1152,46.9122 L87.1152,58.6182 C87.1152,64.3608 90.3286,66.5767 97.5367,66.5767 C104.745,66.5767 107.958,64.3608 107.958,58.6182 L107.958,46.9122 L109.274,45.354 Z" id="Path" fill-rule="nonzero"></path>
            <polygon id="Path" fill-rule="nonzero" points="139.713 45.3539 132.315 45.3539 133.621 46.912 133.621 57.3998 123.014 45.3539 116.367 45.3539 117.678 46.912 117.678 64.6078 116.367 66.1704 123.765 66.1704 122.454 64.6078 122.454 53.9347 133.718 66.1704 138.402 66.1704 138.402 46.912"></polygon>
            <polygon id="Path" fill-rule="nonzero" points="156.755 66.1704 155.444 64.6123 155.444 46.9165 156.755 45.3539 147.923 45.3539 149.238 46.9165 149.238 64.6123 147.923 66.1704"></polygon>
            <polygon id="Path" fill-rule="nonzero" points="185.879 45.3539 178.45 45.3539 179.761 46.912 174.517 58.3664 169.463 46.912 170.774 45.3539 162.039 45.3539 171.741 66.1704 176.08 66.1704"></polygon>
            <polygon id="Path" fill-rule="nonzero" points="210.686 66.1704 210.686 60.5205 209.123 61.8314 198.481 61.8314 198.481 57.8367 205.226 57.8367 206.753 59.1521 206.753 52.3766 205.226 53.6876 198.481 53.6876 198.481 49.6929 209.123 49.6929 210.686 51.0038 210.686 45.3539 191.087 45.3539 192.394 46.9165 192.394 64.6123 191.087 66.1704"></polygon>
            <path d="M233.343,52.0941 C233.343,53.5904 231.908,54.8087 229.909,54.8087 L225.949,54.8087 L225.949,49.6929 L230.659,49.6929 C232.032,49.6929 233.343,50.377 233.343,52.0941 Z M240.52,66.1704 L234.875,57.9603 C237.651,56.8392 239.589,54.6851 239.589,51.6571 C239.589,48.1921 237.466,45.3539 231.533,45.3539 L218.552,45.3539 L219.862,46.9164 L219.862,64.6078 L218.552,66.1704 L227.256,66.1704 L225.949,64.6078 L225.949,58.7107 L228.571,58.7107 L232.562,64.6078 L231.255,66.1704 L240.52,66.1704 Z" id="Shape"></path>
            <path d="M266.885,60.0839 C266.885,56.7778 264.228,54.9327 260.392,53.6835 C257.894,52.9067 254.367,52.3461 254.367,50.6908 C254.367,49.8787 255.333,49.3181 257.02,49.3181 C259.271,49.3181 262.948,50.2538 265.821,51.6266 L265.821,44.6657 L264.166,46.2592 C262.418,45.5397 259.39,44.7893 257.302,44.7893 C250.218,44.7893 247.94,47.91 247.94,50.7526 C247.94,54.6237 250.5,56.3099 254.526,57.7135 C257.518,58.742 260.299,58.8347 260.299,60.5473 C260.299,62.0216 258.582,62.207 257.704,62.207 C255.492,62.207 251.559,61.4257 248.064,59.1481 L248.064,66.855 L249.719,65.0452 C251.343,65.6676 254.994,66.7314 257.986,66.7314 C264.139,66.7314 266.885,64.0168 266.885,60.0839 Z" id="Path" fill-rule="nonzero"></path>
            <path d="M287.997,58.6798 L281.103,58.6798 L284.537,51.2245 L287.997,58.6798 Z M298.013,66.1704 L287.772,45.3539 L280.754,45.3539 L281.5,46.9165 L272.235,66.1704 L279.876,66.1704 L278.569,64.6078 L279.597,62.4229 L289.52,62.4229 L290.527,64.6078 L289.211,66.1704 L298.013,66.1704 Z" id="Shape"></path>
            <polygon id="Path" fill-rule="nonzero" points="322.678 66.1704 322.678 60.5205 321.115 61.8314 311.096 61.8314 311.096 46.9165 312.407 45.3539 303.698 45.3539 305.013 46.9165 305.013 64.6123 303.698 66.1704"></polygon>
            <path d="M318.286,49.8562 C318.286,47.5653 320.149,45.707 322.44,45.707 C324.731,45.707 326.593,47.5653 326.593,49.8562 C326.593,52.1471 324.731,54.0054 322.44,54.0054 C320.149,54.0054 318.286,52.1471 318.286,49.8562 Z M318.679,49.8562 C318.679,51.9308 320.356,53.6214 322.44,53.6214 C324.519,53.6214 326.205,51.9308 326.205,49.8562 C326.205,47.7772 324.519,46.091 322.44,46.091 C320.356,46.091 318.679,47.7772 318.679,49.8562 Z" id="Shape" fill-rule="nonzero"></path>
            <path d="M324.002,48.2322 C323.592,47.8835 323.097,47.7202 322.563,47.7202 C321.341,47.7202 320.431,48.6692 320.431,49.8698 C320.431,51.0793 321.323,52.0327 322.555,52.0327 C323.106,52.0327 323.632,51.8297 324.055,51.4633 L324.055,50.9204 C323.671,51.375 323.124,51.6575 322.532,51.6575 C321.557,51.6575 320.837,50.81 320.837,49.8698 C320.837,48.9297 321.566,48.0998 322.541,48.0998 C323.128,48.0998 323.614,48.3426 324.002,48.7708 L324.002,48.2322 Z" id="Path"></path>
            <path d="M14.9194,141.699 L14.9194,149.578 C14.9194,153.445 12.7565,154.937 7.9011,154.937 C3.05009,154.937 0.882804,153.445 0.882804,149.578 L0.882804,141.699 L0,140.648 L5.90596,140.648 L5.02316,141.699 L5.02316,149.45 C5.02316,151.193 6.17963,151.931 7.9011,151.931 C9.62698,151.931 10.779,151.193 10.779,149.45 L10.779,141.699 L9.89624,140.648 L15.8022,140.648 L14.9194,141.699 Z" id="Path" fill-rule="nonzero"></path>
            <polygon id="Path" fill-rule="nonzero" points="37.5677 141.699 37.5677 154.663 34.4161 154.663 26.8328 146.427 26.8328 153.613 27.7156 154.663 22.7322 154.663 23.615 153.613 23.615 141.699 22.7322 140.649 27.208 140.649 34.3543 148.757 34.3543 141.699 33.4715 140.649 38.4505 140.649"></polygon>
            <polygon id="Path" fill-rule="nonzero" points="46.1177 154.663 47.0005 153.613 47.0005 141.699 46.1177 140.649 52.0634 140.649 51.1806 141.699 51.1806 153.613 52.0634 154.663"></polygon>
            <polygon id="Path" fill-rule="nonzero" points="67.2961 154.663 64.3741 154.663 57.8413 140.649 63.7252 140.649 62.8424 141.699 66.2456 149.41 69.7768 141.699 68.894 140.649 73.8951 140.649"></polygon>
            <polygon id="Path" fill-rule="nonzero" points="79.5671 154.663 80.4499 153.613 80.4499 141.699 79.5671 140.649 92.7606 140.649 92.7606 144.453 91.7101 143.571 84.5462 143.571 84.5462 146.259 89.0838 146.259 90.1122 145.376 90.1122 149.936 89.0838 149.053 84.5462 149.053 84.5462 151.741 91.7101 151.741 92.7606 150.858 92.7606 154.663"></polygon>
            <path d="M108.373,143.571 L105.199,143.571 L105.199,147.014 L107.87,147.014 C109.212,147.014 110.178,146.197 110.178,145.186 C110.178,144.03 109.296,143.571 108.373,143.571 Z M108.77,154.663 L109.653,153.613 L106.965,149.64 L105.199,149.64 L105.199,153.613 L106.082,154.663 L100.22,154.663 L101.103,153.613 L101.103,141.699 L100.22,140.649 L108.96,140.649 C112.955,140.649 114.381,142.56 114.381,144.895 C114.381,146.93 113.079,148.382 111.211,149.137 L115.012,154.663 L108.77,154.663 Z" id="Shape" fill-rule="nonzero"></path>
            <path d="M128.92,155.043 C126.903,155.043 124.444,154.328 123.354,153.908 L122.237,155.126 L122.237,149.936 C124.59,151.472 127.239,151.997 128.73,151.997 C129.318,151.997 130.474,151.869 130.474,150.885 C130.474,149.728 128.607,149.662 126.59,148.969 C123.879,148.024 122.154,146.89 122.154,144.286 C122.154,142.374 123.69,140.273 128.457,140.273 C129.865,140.273 131.904,140.776 133.083,141.262 L134.195,140.189 L134.195,144.873 C132.262,143.95 129.781,143.319 128.267,143.319 C127.133,143.319 126.484,143.699 126.484,144.241 C126.484,145.358 128.858,145.733 130.536,146.259 C133.122,147.102 134.91,148.338 134.91,150.567 C134.91,153.215 133.061,155.043 128.92,155.043 Z" id="Path" fill-rule="nonzero"></path>
            <path d="M148.964,144.599 L146.656,149.622 L151.299,149.622 L148.964,144.599 Z M152.116,154.663 L152.999,153.613 L152.328,152.143 L145.645,152.143 L144.952,153.613 L145.835,154.663 L140.688,154.663 L146.929,141.699 L146.422,140.649 L151.149,140.649 L158.044,154.663 L152.116,154.663 Z" id="Shape" fill-rule="nonzero"></path>
            <polygon id="Path" fill-rule="nonzero" points="164.03 154.663 164.912 153.613 164.912 141.699 164.03 140.649 169.891 140.649 169.009 141.699 169.009 151.741 175.753 151.741 176.804 150.858 176.804 154.663"></polygon>
            <polygon id="Path" fill-rule="nonzero" points="208.298 154.663 209.181 153.613 209.181 146.89 205.46 154.663 203.509 154.663 199.302 146.762 199.302 153.613 200.185 154.663 195.334 154.663 196.217 153.613 196.217 141.699 195.334 140.649 200.273 140.649 204.828 149.221 208.991 140.649 214.032 140.649 213.149 141.699 213.149 153.613 214.032 154.663"></polygon>
            <path d="M235.885,141.699 L235.885,149.578 C235.885,153.445 233.718,154.937 228.867,154.937 C224.016,154.937 221.849,153.445 221.849,149.578 L221.849,141.699 L220.966,140.648 L226.872,140.648 L225.989,141.699 L225.989,149.45 C225.989,151.193 227.145,151.931 228.867,151.931 C230.588,151.931 231.745,151.193 231.745,149.45 L231.745,141.699 L230.862,140.648 L236.768,140.648 L235.885,141.699 Z" id="Path" fill-rule="nonzero"></path>
            <path d="M250.257,155.043 C248.24,155.043 245.782,154.328 244.691,153.908 L243.575,155.126 L243.575,149.936 C245.927,151.472 248.576,151.997 250.068,151.997 C250.655,151.997 251.811,151.869 251.811,150.885 C251.811,149.728 249.944,149.662 247.927,148.969 C245.217,148.024 243.491,146.89 243.491,144.286 C243.491,142.374 245.027,140.273 249.798,140.273 C251.202,140.273 253.241,140.776 254.415,141.262 L255.532,140.189 L255.532,144.873 C253.599,143.95 251.118,143.319 249.604,143.319 C248.47,143.319 247.821,143.699 247.821,144.241 C247.821,145.358 250.196,145.733 251.877,146.259 C254.46,147.102 256.247,148.338 256.247,150.567 C256.247,153.215 254.398,155.043 250.257,155.043 Z" id="Path" fill-rule="nonzero"></path>
            <polygon id="Path" fill-rule="nonzero" points="263.702 154.663 264.585 153.613 264.585 141.699 263.702 140.649 269.648 140.649 268.765 141.699 268.765 153.613 269.648 154.663"></polygon>
            <path d="M284.691,154.937 C280.427,154.937 276.583,152.835 276.583,147.645 C276.583,143.548 279.522,140.375 284.859,140.375 C286.479,140.375 288.222,140.754 289.207,141.134 L290.173,140.207 L290.173,144.873 C288.664,143.95 287.066,143.403 285.093,143.403 C282.127,143.403 280.97,145.376 280.97,147.645 C280.97,150.187 282.652,151.913 285.216,151.913 C287.799,151.913 289.357,150.902 290.195,150.377 L290.195,153.656 C289.189,154.244 286.77,154.937 284.691,154.937 Z" id="Path" fill-rule="nonzero"></path>
            <path d="M318.75,147.711 L323.751,147.711 L323.751,153.321 C322.51,154.098 319.756,154.937 317.386,154.937 C313.117,154.937 309.105,152.835 309.105,147.649 C309.105,142.396 313.475,140.379 317.386,140.379 C319.654,140.379 321.124,140.948 322.007,141.262 L323.119,140.211 L323.119,145.023 C321.605,144.18 319.8,143.403 317.593,143.403 C315.029,143.403 313.497,145.106 313.497,147.649 C313.497,150.191 315.029,151.913 317.593,151.913 C318.246,151.913 318.979,151.807 319.654,151.683 L319.654,148.779 L318.75,147.711 Z" id="Path" fill-rule="nonzero"></path>
            <path d="M338.732,143.571 L335.558,143.571 L335.558,147.014 L338.229,147.014 C339.571,147.014 340.537,146.197 340.537,145.186 C340.537,144.03 339.655,143.571 338.732,143.571 Z M339.129,154.663 L340.012,153.613 L337.324,149.64 L335.558,149.64 L335.558,153.613 L336.441,154.663 L330.579,154.663 L331.462,153.613 L331.462,141.699 L330.579,140.649 L339.319,140.649 C343.314,140.649 344.74,142.56 344.74,144.895 C344.74,146.93 343.437,148.382 341.57,149.137 L345.371,154.663 L339.129,154.663 Z" id="Shape" fill-rule="nonzero"></path>
            <path d="M360.017,143.315 C357.39,143.315 356.322,145.058 356.322,147.645 C356.322,150.227 357.39,151.993 360.017,151.993 C362.643,151.993 363.693,150.227 363.693,147.645 C363.693,145.058 362.643,143.315 360.017,143.315 Z M360.017,155.016 C356.066,155.016 351.908,152.959 351.908,147.645 C351.908,142.326 356.066,140.291 360.017,140.291 C363.967,140.291 368.085,142.326 368.085,147.645 C368.085,152.959 363.967,155.016 360.017,155.016 Z" id="Shape" fill-rule="nonzero"></path>
            <path d="M389.136,141.699 L389.136,149.578 C389.136,153.445 386.973,154.937 382.117,154.937 C377.266,154.937 375.099,153.445 375.099,149.578 L375.099,141.699 L374.216,140.648 L380.122,140.648 L379.239,141.699 L379.239,149.45 C379.239,151.193 380.396,151.931 382.117,151.931 C383.839,151.931 384.995,151.193 384.995,149.45 L384.995,141.699 L384.113,140.648 L390.019,140.648 L389.136,141.699 Z" id="Path" fill-rule="nonzero"></path>
            <path d="M404.285,143.571 L401.932,143.571 L401.932,147.813 L403.905,147.813 C405.799,147.813 406.849,147.331 406.849,145.544 C406.849,143.99 405.777,143.571 404.285,143.571 Z M404.368,150.589 L401.932,150.589 L401.932,153.613 L402.815,154.663 L396.953,154.663 L397.836,153.613 L397.836,141.699 L396.953,140.649 L404.496,140.649 C407.268,140.649 411.113,141.425 411.113,145.292 C411.113,149.706 407.732,150.589 404.368,150.589 Z" id="Shape" fill-rule="nonzero"></path>
        </g>
    </g>
</svg>