<svg width="129" height="25" viewBox="0 0 129 25" fill="none" xmlns="http://www.w3.org/2000/svg">
<g clip-path="url(#clip0_14194_41933)">
<path d="M121.039 21.006C121.039 19.1152 122.579 17.6445 124.399 17.6445C126.289 17.6445 127.758 19.1852 127.758 21.006C127.758 22.8268 126.219 24.3675 124.399 24.3675C122.579 24.3675 121.039 22.8969 121.039 21.006Z" fill="#FEFEFE"/>
<path d="M20.1095 11.9726C20.1095 15.8943 19.1296 18.8356 17.0298 20.9366C14.93 23.0375 11.9903 24.088 8.21074 24.088H0.791504V0.767578H8.63069C12.3403 0.767578 15.14 1.67798 17.0998 3.63886C19.1296 5.5297 20.1095 8.33095 20.1095 11.9726ZM13.6702 12.1827C13.6702 10.0117 13.2502 8.47101 12.4103 7.42055C11.6404 6.44011 10.3105 5.87986 8.63069 5.87986H6.95087V18.9057H8.35072C10.2405 18.9057 11.5704 18.3454 12.4803 17.2249C13.2502 16.1044 13.6702 14.4237 13.6702 12.1827Z" fill="#FEFEFE"/>
<path d="M46.286 0.697266H40.4766V24.0877H46.286V0.697266Z" fill="#FEFEFE"/>
<path d="M65.4643 15.3331C65.4643 18.1344 64.7644 20.3754 63.2245 21.9861C61.6847 23.5968 59.5849 24.3672 56.9252 24.3672C54.3354 24.3672 52.3057 23.5968 50.7658 21.9161C49.226 20.2353 48.4561 18.0644 48.4561 15.3331C48.4561 12.5319 49.156 10.2909 50.6958 8.7502C52.2357 7.13948 54.3354 6.36914 56.9952 6.36914C58.675 6.36914 60.1448 6.7193 61.4047 7.41961C62.7346 8.11992 63.6445 9.17039 64.3444 10.501C65.1843 11.9716 65.4643 13.5123 65.4643 15.3331ZM54.4754 15.3331C54.4754 16.8738 54.6854 17.9243 55.0354 18.6946C55.3853 19.465 56.0153 19.8151 56.9952 19.8151C57.9751 19.8151 58.535 19.465 58.955 18.6946C59.3049 17.9243 59.5149 16.7338 59.5149 15.3331C59.5149 13.7925 59.3049 12.742 58.955 11.9716C58.605 11.2713 57.9751 10.8511 56.9952 10.8511C56.1553 10.8511 55.4553 11.2013 55.0354 11.9716C54.6854 12.742 54.4754 13.7925 54.4754 15.3331Z" fill="#FEFEFE"/>
<path d="M73.6536 6.65039H67.8442V24.0181H73.6536V6.65039Z" fill="#FEFEFE"/>
<path d="M73.6536 0.697266H67.8442V4.61901H73.6536V0.697266Z" fill="#FEFEFE"/>
<path d="M85.4826 19.6063C86.2525 19.6063 87.2324 19.3962 88.2823 19.046V23.458C87.5123 23.8082 86.7424 24.0182 86.0425 24.1583C85.3426 24.2984 84.5027 24.3684 83.5228 24.3684C81.563 24.3684 80.1631 23.8782 79.2532 22.8277C78.4133 21.8473 77.9233 20.3066 77.9233 18.2757V11.1325H75.8936V6.6505H77.9233V2.30856L83.8027 1.32812V6.79056H87.5823V11.2025H83.8027V17.9255C83.9427 19.1161 84.4327 19.6063 85.4826 19.6063Z" fill="#FEFEFE"/>
<path d="M99.0617 19.6063C99.8316 19.6063 100.811 19.3962 101.861 19.046V23.458C101.091 23.8082 100.322 24.0182 99.6216 24.1583C98.9217 24.2984 98.0818 24.3684 97.1019 24.3684C95.1421 24.3684 93.7422 23.8782 92.8323 22.8277C91.9924 21.8473 91.5025 20.3066 91.5025 18.2757V11.1325H89.4727V6.6505H91.5025V2.23853L97.3818 1.32812V6.79056H101.161V11.2025H97.3818V17.9255C97.4518 19.1161 98.0118 19.6063 99.0617 19.6063Z" fill="#FEFEFE"/>
<path d="M117.539 8.40005C116.139 6.99942 114.18 6.36914 111.66 6.36914C109 6.36914 106.9 7.13948 105.431 8.7502C103.961 10.3609 103.261 12.6019 103.261 15.5432C103.261 18.3445 104.031 20.5855 105.571 22.1262C107.18 23.6669 109.35 24.4372 112.15 24.4372C113.55 24.4372 114.67 24.3672 115.649 24.1571C116.559 23.947 117.609 23.6669 118.449 23.1766L117.609 19.2549C116.979 19.535 116.279 19.7451 115.719 19.8852C114.88 20.0953 113.9 20.1653 112.92 20.1653C111.8 20.1653 110.89 19.8852 110.26 19.3949C109.63 18.8347 109.28 18.0644 109.28 17.0839H119.709V14.3527C119.639 11.7615 118.869 9.80067 117.539 8.40005ZM109.28 13.2322C109.35 12.3218 109.63 11.5515 110.05 11.1313C110.47 10.7111 111.03 10.501 111.8 10.501C112.5 10.501 113.2 10.7111 113.62 11.2013C114.04 11.6915 114.25 12.3218 114.32 13.2322H109.28Z" fill="#FEFEFE"/>
<path d="M36.1379 8.40005C34.668 6.99942 32.7782 6.36914 30.2585 6.36914C27.5988 6.36914 25.499 7.13948 24.0292 8.7502C22.5593 10.3609 21.8594 12.6019 21.8594 15.5432C21.8594 18.3445 22.6293 20.5855 24.1691 22.1262C25.779 23.6669 27.9487 24.4372 30.7485 24.4372C32.1483 24.4372 33.2682 24.3672 34.2481 24.1571C35.158 23.947 36.2079 23.6669 37.0478 23.1766L36.2079 19.1849C35.578 19.465 34.878 19.6751 34.3181 19.8151C33.4782 20.0252 32.4983 20.0953 31.5184 20.0953C30.3985 20.0953 29.4886 19.8151 28.8586 19.3249C28.2287 18.7647 27.8788 17.9943 27.8788 17.0139H38.3077V14.3527C38.2377 11.7615 37.4678 9.80067 36.1379 8.40005ZM27.8088 13.2322C27.8788 12.3218 28.1587 11.5515 28.5787 11.1313C28.9986 10.7111 29.5586 10.501 30.3285 10.501C31.0984 10.501 31.7284 10.7111 32.1483 11.2013C32.5683 11.6915 32.7782 12.3218 32.8482 13.2322H27.8088Z" fill="#FEFEFE"/>
</g>
<defs>
<clipPath id="clip0_14194_41933">
<rect width="127.387" height="23.8106" fill="white" transform="translate(0.792969 0.697266)"/>
</clipPath>
</defs>
</svg>
