<svg width="148" height="34" viewBox="0 0 148 34" fill="none" xmlns="http://www.w3.org/2000/svg">
<g clip-path="url(#clip0_14194_41973)">
<path d="M23.8795 12.9344C24.2758 11.7877 26.0628 11.8152 26.8278 11.3115C27.3641 10.9596 27.8833 10.6001 27.9071 8.9175C27.9271 7.47768 28.6072 7.09633 29.0121 6.96828C29.0121 6.55663 28.3891 6.83269 27.869 7.25288C28.6149 5.4052 30.2009 6.9541 30.2009 6.9541C30.0953 6.6809 29.9107 6.445 29.6705 6.2763C29.4302 6.1076 29.1451 6.01366 28.8512 6.00635C28.5573 5.99904 28.2678 6.07871 28.0193 6.23525C27.7709 6.3918 27.5747 6.61818 27.4555 6.88578C26.9792 7.69201 27.3327 9.50935 26.341 9.95799C25.3494 10.4066 24.8321 9.5786 24.1376 9.77968C23.1231 10.0642 23.0993 11.4016 22.0829 10.9691C22.8612 10.474 22.8259 10.0092 23.3451 9.44391C24.4282 8.26587 26.2029 9.55864 26.5944 6.22466L26.7735 6.85638C28.6453 4.35044 30.803 6.54718 30.4886 7.23105C27.8956 6.7568 28.4396 8.80652 28.19 10.1847H30.0828L23.8795 12.9344ZM27.3984 9.49891C27.6908 11.3523 23.7957 10.657 23.3317 12.1547C24.0795 9.73318 27.0126 11.2745 27.3984 9.49891ZM29.5036 25.1245L29.1778 24.7944C29.6571 24.7901 30.1216 24.6284 30.4991 24.3344C30.1826 24.483 29.829 24.5346 29.483 24.4828C29.137 24.4309 28.8143 24.2779 28.5558 24.0432L28.8416 24.5061C27.3955 24.1267 27.5537 21.801 26.6954 21.0536C25.9581 20.4086 25.1264 20.7586 24.0081 19.9049C22.8897 19.0513 22.4468 16.8327 20.3996 15.4574C23.1841 14.6739 24.0957 19.6811 26.7611 19.6811C28.09 19.6811 28.793 18.5637 29.9904 18.3769C30.8296 18.2469 31.747 18.319 31.8956 19.074C31.9843 19.5498 31.9327 20.041 31.747 20.4882C32.0206 20.1498 32.1644 19.7255 32.1528 19.2912C32.1528 17.7793 30.6287 17.7973 30.1152 17.8381C28.9387 17.933 28.652 18.687 27.1841 18.3513C25.3151 17.9216 24.9435 14.6862 22.7659 14.4842C23.9014 13.5433 24.9921 15.243 26.019 15.2326C26.7649 15.2193 27.0164 14.6189 27.506 13.42C28.0719 12.0361 28.8606 13.1658 29.4884 13.7482C29.7938 13.9867 30.1757 14.1067 30.5633 14.0859C30.9508 14.0652 31.3176 13.9051 31.5955 13.6353C31.4507 14.0821 30.9497 14.0726 31.145 14.3676C31.2307 14.4994 31.3631 14.4377 31.5022 14.3116C32.2147 13.6552 32.3843 11.9337 31.6174 11.5211C32.2033 14.2585 29.7751 13.6173 29.8437 13.2502C30.2943 13.4001 31.0592 12.9486 30.7449 12.9486C28.6311 12.9486 28.9549 11.9308 27.8004 12.0371C27.8004 12.0371 26.8402 11.9944 26.2629 13.5329C25.8942 14.5165 24.9026 13.1535 23.7299 13.5329C24.5149 12.4971 25.1055 13.3641 25.7513 12.9344C26.3972 12.5047 27.1431 11.1521 28.6749 11.8265L29.4922 11.1151L28.9492 12.003C30.5382 13.0463 31.4612 12.9457 31.3069 10.9871C33.3655 12.1803 32.23 14.9291 30.6725 14.9101C29.7532 14.9025 29.4341 14.4359 28.9083 14.2338C28.5339 14.0953 28.2348 14.3799 27.8842 14.7451L29.3617 15.3217L27.5718 15.0638C27.269 15.4084 26.8602 15.6437 26.4091 15.7329C25.958 15.8221 25.49 15.7603 25.0779 15.557L25.3008 15.9743H31.5927L27.286 17.8846C28.4358 18.1217 29.858 16.7151 31.4774 17.6882C33.0444 18.6244 32.3348 20.7529 31.6822 20.75C31.0983 20.7424 32.2166 18.836 30.6163 18.8768C30.0285 18.89 29.5589 19.3699 28.9883 19.8195L29.5151 21.119L28.6511 20.0681C28.2287 20.4283 27.6819 20.6104 27.1269 20.5755L30.1028 22.3245H28.0738C28.0318 22.7598 28.1088 23.1983 28.2967 23.5936L28.5015 23.5083C28.7995 23.8183 29.176 24.0426 29.5912 24.1574C30.0065 24.2723 30.4452 24.2735 30.8611 24.1608C30.3848 26.0028 27.7051 25.4887 27.1945 24.967L27.2222 25.631C26.0495 22.757 25.1493 22.5844 23.4051 22.5844L27.4641 26.663L26.4963 26.4581C26.7887 27.6029 25.4113 29.5986 24.4253 29.7124C24.0443 29.7551 25.1217 28.9536 25.1217 27.8154C25.1217 26.6772 23.8395 26.3215 23.2955 25.8748C22.302 25.0543 21.9 23.3821 21.5142 22.7371C22.2144 23.1004 23.0383 24.453 23.649 25.1425C24.2596 25.8321 25.5542 26.3377 25.5542 27.4189C25.5826 27.9821 25.4235 28.5389 25.1017 29.0029C25.5075 29.0029 26.7725 26.7976 25.578 25.7429C24.9845 25.2165 24.6082 24.8893 23.9976 24.3828C23.2018 23.7071 22.5008 22.9281 21.9133 22.0665C20.7912 20.4247 18.9974 19.2514 19.8405 17.9206C18.5392 19.9741 20.916 21.5174 21.1874 23.1279C21.4589 24.7385 22.3306 26.46 23.2622 26.6896C23.1117 26.7304 22.9562 26.7508 22.8002 26.7502L22.5382 26.7265C21.0303 26.4419 19.769 21.5098 19.769 22.2183C19.769 23.5101 22.0324 29.3918 22.0324 29.3918L19.9757 28.0895C19.6423 29.4364 21.1274 29.4999 20.9865 30.7225C20.8188 32.1055 19.207 31.9774 19.2375 31.6625C19.2575 31.4624 19.8738 31.672 19.8738 31.3438C19.8738 31.0157 18.8764 30.8307 18.4554 30.3413C18.1963 30.0415 17.9734 29.7968 17.8838 28.6453L17.2551 29.4715C17.2551 29.4715 18.0172 27.4958 18.1258 26.9788C18.2344 26.4619 17.0389 26.4097 16.6893 25.4005L16.4549 30.4276L14.9308 28.376C14.645 30.6296 11.4452 30.4778 11.2404 30.2435C13.5609 28.5315 12.4388 27.7623 11.8625 26.3054L10.6365 27.0338L11.7043 25.8311C11.6321 25.5253 11.6096 25.2099 11.6377 24.8969C11.7701 23.1156 14.3735 23.2778 12.8103 21.5174L8.59601 28.2375L9.12851 24.618C6.6327 25.5077 7.49861 25.6358 6.78321 27.2586C6.73029 27.4806 6.61398 27.6826 6.44831 27.8402C6.28264 27.9978 6.07471 28.1043 5.84959 28.1468C5.62448 28.1893 5.39182 28.1661 5.17969 28.0798C4.96757 27.9936 4.78504 27.8481 4.65415 27.6608C4.54321 27.5252 4.47614 27.3592 4.46176 27.1848C4.44739 27.0105 4.48639 26.8359 4.57363 26.684C4.66087 26.5321 4.79225 26.4102 4.95048 26.3341C5.10872 26.2581 5.28637 26.2315 5.46005 26.258C5.87539 25.9175 4.67797 25.3835 5.15713 24.3088C5.85729 22.7409 7.8244 23.421 8.82749 22.1168L6.36502 22.3757L9.11612 21.617C9.34598 21.0165 9.45349 20.3765 9.43239 19.7342L4.1931 22.6044L5.78584 19.9912C2.86422 22.3928 2.15835 19.3794 0.766602 19.6185C1.12573 18.006 2.48128 18.927 3.07761 18.927C3.67393 18.927 4.55127 17.8637 4.85706 17.6313L1.72873 15.9715H9.5286C10.1144 15.9715 10.444 15.7713 10.1592 15.4394C9.78866 14.9964 8.34928 15.521 6.71844 15.6414C6.33651 15.6771 5.95139 15.6275 5.59115 15.4962C5.23091 15.365 4.90462 15.1553 4.63606 14.8826L3.26241 15.2981L4.42553 14.6843C3.62535 13.8933 3.01283 13.0833 1.12573 14.2215C1.02458 13.8946 1.00183 13.5487 1.05932 13.2115C1.1168 12.8742 1.25292 12.5551 1.45673 12.2798C1.66053 12.0045 1.92636 11.7805 2.23284 11.626C2.53932 11.4715 2.87793 11.3908 3.22145 11.3902C5.02281 11.3438 5.37241 13.4456 6.76702 12.7115L4.37885 9.95041L8.25593 11.8474L7.75867 10.3858L6.08972 9.95041L7.71485 10.0822C7.26237 8.57601 5.56198 8.84253 4.86373 8.10649C3.351 6.50732 4.98852 4.4652 6.22594 5.0362C5.3686 6.84878 6.94801 7.62275 8.25498 7.36571L7.62245 5.25532L12.6284 10.2975C11.4805 11.1588 10.2049 10.3981 9.57242 8.52951C8.96752 6.74158 7.732 8.7572 5.83538 8.0629C6.83846 8.43187 8.14543 7.89784 8.41311 10.0547C8.59029 11.4633 9.2914 12.7494 10.827 12.4004C10.2316 13.2882 8.79986 12.1851 7.89394 13.4675C9.4724 13.2929 10.0449 14.6056 11.1375 15.3502C9.78675 14.4216 10.7632 13.4598 9.09612 13.2436C9.64517 13.3608 10.2148 13.3416 10.7546 13.1876C11.0213 13.129 11.2566 12.974 11.415 12.7525C11.5734 12.531 11.6436 12.2588 11.6119 11.9887C11.7348 12.0239 11.8471 12.0887 11.9388 12.1774C12.0305 12.2661 12.0989 12.3759 12.1379 12.4971C12.1769 12.6184 12.1853 12.7473 12.1623 12.8725C12.1394 12.9977 12.0858 13.1154 12.0063 13.2151C11.7139 13.6002 11.1318 13.8155 11.1147 14.1456C11.1147 14.1456 11.1318 14.0858 11.5357 13.8914C11.4163 14.1024 11.3737 14.3479 11.415 14.5865C11.4563 14.8251 11.579 15.0423 11.7624 15.2013C11.7434 14.9623 11.7453 14.5876 11.8872 14.5193C11.973 14.7625 12.1351 14.9718 12.3495 15.1163C12.5639 15.2608 12.8193 15.3328 13.078 15.3217C12.8884 15.1674 12.7623 14.9491 12.7239 14.7083C12.6854 14.4674 12.7372 14.221 12.8694 14.0157C12.5769 14.0081 12.2816 14.4254 12.2816 14.4254C12.2267 14.2331 12.2485 14.0272 12.3423 13.8505C12.4362 13.6738 12.595 13.5399 12.7855 13.4769C12.7695 13.4435 12.7604 13.4072 12.7588 13.3702C12.7572 13.3332 12.763 13.2963 12.776 13.2616C13.3476 13.8392 14.3688 13.8117 14.6555 14.0005C14.6555 14.0005 13.1647 13.789 13.3438 14.6028C13.5114 15.3616 15.8338 14.857 15.5414 12.5161C15.5414 12.5161 15.9434 12.4753 16.092 12.6195C16.2406 12.7636 16.0625 13.1886 16.0625 13.1886L16.3587 13.3242C16.2234 13.7776 16.1422 14.2453 16.1168 14.7176C16.1596 14.8456 16.6883 14.857 16.7722 14.8608C16.8874 14.8703 16.8169 14.9812 16.7645 14.9812H15.9224C15.7996 14.9907 15.4309 15.4261 15.7815 15.5039C16.0662 15.5715 16.3575 15.6081 16.6502 15.6129C16.9429 15.6082 17.2343 15.5717 17.519 15.5039C17.519 15.5039 17.4485 15.8501 16.6407 15.8501C16.2614 15.8719 15.8813 15.8257 15.5185 15.7135C15.328 16.2143 16.3949 16.7179 16.5016 16.7511C16.6057 16.7797 16.7157 16.7797 16.8198 16.7511C16.855 16.7255 17.5923 16.1432 17.5923 16.1432L17.3694 16.4988C18.3573 16.2712 18.2106 15.7761 17.8705 15.6632C17.8572 15.4394 18.4421 15.4802 18.4192 15.9079C18.3954 16.4524 16.9903 16.7568 16.8188 17.1239C16.7937 17.3221 16.8185 17.5234 16.891 17.7097C16.9635 17.896 17.0814 18.0614 17.2342 18.191C17.5846 18.2661 17.9495 18.2351 18.282 18.1018C18.6494 17.555 18.9293 16.9547 19.1117 16.3224C18.9136 15.6269 18.6564 14.9495 18.343 14.2974C18.4897 13.8639 19.1451 13.9768 19.7443 13.5936C18.7688 14.6019 19.4299 14.7318 20.1463 14.7612C19.6033 15.2174 19.227 15.5133 19.4413 16.2162C22.5944 16.9038 21.9686 20.5395 24.2501 21.3125C22.4401 21.5847 20.9693 19.2979 20.7997 18.2498C20.7718 18.8079 20.8647 19.3655 21.0722 19.8847C21.2796 20.404 21.5967 20.8728 22.0019 21.2594C22.7497 22.0362 24.0491 21.9157 25.1026 21.9233C26.9726 21.9404 26.341 24.3363 27.9033 24.877C28.415 25.0565 28.9556 25.1401 29.4979 25.1236M17.6857 9.20962C16.3844 9.79675 16.655 8.26111 17.0122 7.86653C17.4017 8.38771 17.9127 8.80666 18.5011 9.08724C17.3418 7.18075 18.6497 7.2282 18.4344 4.72416C18.3268 3.45886 17.6476 3.03962 17.6657 1.87866C17.6895 0.479618 19.7614 0.11252 19.7852 0.652217C19.8005 1.03731 18.2763 1.07811 18.2515 2.52363C18.2315 3.87619 19.7557 4.20436 19.7195 5.51803C19.6957 6.37737 18.1391 7.17319 19.1089 8.79228L21.318 2.6052L19.6261 4.5022C19.0841 3.83351 18.6564 3.76807 18.6564 2.56537C18.6564 1.36267 20.011 1.18433 20.011 0.624718C20.011 0.172283 19.3337 0.109688 18.8383 0.0859759C18.2899 0.0826758 17.7618 0.292303 17.366 0.670395C16.9703 1.04849 16.7381 1.56528 16.7188 2.11103C16.7188 3.51387 17.6714 4.22333 16.7245 5.53511L15.9053 4.30873L16.5121 5.87847C16.1331 6.39556 15.938 7.02371 15.9577 7.66356C15.9577 9.90582 17.8153 10.1135 17.6847 9.21055M17.6714 3.93498C18.4697 6.50162 16.6159 6.49594 16.6236 7.76314C16.2978 6.27873 18.0915 5.31315 17.6714 3.93498ZM21.3418 13.0074C21.4761 13.2986 22.021 12.6517 22.8459 12.9002C22.4477 12.6299 21.2713 12.6337 21.3418 13.0074ZM20.4359 7.87794C20.1348 8.68795 19.2927 8.91556 18.8879 9.62315C19.6368 9.46035 20.3006 9.03147 20.755 8.41668C21.1865 7.68633 20.7883 5.74095 22.1839 5.21832C23.6375 4.67388 25.1617 3.87142 23.4422 2.12713C26.0809 2.79108 24.5978 5.5873 24.2853 5.9961C23.5765 6.59839 23.1231 7.44565 23.0164 8.36735C22.994 8.81525 22.8444 9.24762 22.585 9.61429C22.3257 9.98095 21.9673 10.2668 21.5513 10.4388C22.2286 10.7092 23.2374 9.17165 23.2374 9.17165L26.5296 4.94988L24.6368 5.92113C24.6368 5.92113 25.156 5.4763 25.156 4.00138C25.156 1.91468 22.9002 1.54383 22.925 2.1926C22.9421 2.62038 23.6871 2.92676 23.7118 3.63434C23.7366 4.34193 22.7326 4.74409 21.9514 4.97078L21.6037 3.80507V5.11493C20.3253 5.77319 20.7569 7.01952 20.4387 7.87411M22.4544 6.77863C23.1508 5.76468 23.788 5.93917 24.1224 4.86073C23.6537 5.72007 22.4563 5.89841 21.9781 6.60599C21.1408 7.83904 22.2639 9.6317 20.5025 10.1486C22.7154 10.2046 21.6542 7.65785 22.4544 6.77764M24.5663 9.46099C25.1912 9.30164 25.577 9.84605 26.0648 9.70188C26.3362 9.6241 26.3439 9.31681 26.1257 9.23903C26.1257 9.23903 26.9497 8.39203 26.6744 7.91968C25.9971 9.28931 24.6968 9.23904 24.5663 9.46099ZM20.7292 13.9322C20.7921 14.3116 21.4685 13.5205 22.7602 14.0697C22.3191 13.4323 20.633 13.3698 20.7292 13.9322ZM11.5091 11.2356C8.92751 11.6577 10.4107 8.5656 8.42168 8.43376C9.51431 8.95259 9.05802 9.62883 9.22377 10.7101C9.24856 10.9671 9.35375 11.2099 9.52452 11.4042C9.69528 11.5986 9.923 11.7346 10.1756 11.7932C10.4281 11.8517 10.6928 11.8299 10.9322 11.7307C11.1716 11.6315 11.3737 11.46 11.51 11.2404M18.2639 16.6468C18.1039 16.7616 17.719 16.8725 17.4171 17.0708C17.3856 17.1248 17.3351 17.3041 17.2685 17.3487C17.4849 17.3405 17.6942 17.2697 17.871 17.1451C18.0477 17.0205 18.1843 16.8473 18.2639 16.6468ZM26.7192 15.1956C27.2479 15.2326 28.8873 13.3385 28.3215 13.1146C27.7556 12.8908 27.8004 14.782 26.7192 15.1956ZM7.06328 7.79063C4.77704 7.40175 5.33812 6.10993 5.74964 5.40045C4.3779 5.29327 4.30741 8.39673 7.06328 7.79063ZM1.28863 13.8155C1.28863 13.8155 2.58035 12.5891 3.68536 13.6856C2.77944 12.7883 1.66966 12.5644 1.28863 13.8155ZM8.66269 14.6768C7.21093 14.9471 5.1095 13.0643 4.71512 12.609C4.61141 12.4513 4.47724 12.3156 4.32041 12.2099C4.16358 12.1043 3.98722 12.0307 3.80158 11.9935C3.77395 11.9878 3.78157 12.0247 3.78634 12.0712C3.79205 12.1357 3.80158 12.2306 3.76252 12.2495C3.72347 12.2685 3.66726 12.2496 3.50913 12.112C3.41042 12.0353 3.29729 11.9789 3.17639 11.9463C3.0555 11.9138 2.92928 11.9056 2.80516 11.9223C2.56374 11.9372 2.33094 12.0172 2.13168 12.1538C1.96211 12.278 1.90496 12.4174 1.96211 12.5445C2.04975 12.7447 2.33267 12.5929 2.65465 12.5683C2.93717 12.5848 3.21483 12.6489 3.47579 12.7579C3.68632 12.8205 3.83302 13.0548 4.04735 13.2843C5.11521 14.4387 7.22236 15.2705 8.66269 14.6701M8.8132 17.3108C9.83534 17.251 10.6231 16.9418 10.6784 16.1839C10.163 16.662 9.48225 16.9236 8.77795 16.9143C7.73009 16.9769 6.00875 15.6964 5.3486 17.5848C6.8356 16.7644 8.21878 18.5893 9.21615 17.7129M3.17477 20.2872C3.76443 20.732 4.55794 20.0026 4.18357 19.277C2.77849 20.0482 2.31172 18.3816 1.40484 19.4752C1.74587 19.3804 2.08976 19.5767 2.68704 20.0235L3.17477 20.2872ZM10.4298 17.3108C10.2179 17.7458 9.87379 18.1032 9.44628 18.3324C9.01877 18.5616 8.52961 18.6508 8.04826 18.5874C7.00041 18.3465 5.38099 18.0041 4.91231 19.5711C6.13163 18.2261 8.50456 21.431 10.4326 17.3098M5.94016 26.4382C5.80966 27.2463 5.44862 27.0594 5.38575 27.0253C5.36927 27.0167 5.35488 27.0046 5.34362 26.9899C5.33235 26.9752 5.32449 26.9581 5.32058 26.94C5.31667 26.9219 5.31681 26.9032 5.32099 26.8851C5.32518 26.8671 5.3333 26.8502 5.34479 26.8356C5.35971 26.8206 5.37128 26.8026 5.37876 26.7828C5.38624 26.763 5.38945 26.7418 5.3882 26.7207C5.38694 26.6996 5.38124 26.679 5.37146 26.6602C5.36169 26.6414 5.34805 26.6249 5.33145 26.6118C5.24576 26.6065 5.16004 26.6216 5.0814 26.6559C5.00276 26.6902 4.93347 26.7428 4.87927 26.809C4.82507 26.8753 4.78752 26.9535 4.76974 27.0371C4.75197 27.1208 4.75447 27.2075 4.77704 27.29C4.8142 27.46 4.91648 27.6089 5.06216 27.7051C5.20784 27.8013 5.38543 27.8371 5.55722 27.805C5.99446 27.7509 6.41456 27.3601 5.93826 26.4334M11.1509 20.0092C11.1479 18.7029 11.5996 17.4359 12.4293 16.4239C9.51145 17.9785 10.7784 20.5727 9.95251 22.0665C8.68555 24.3591 6.45171 23.1042 5.70963 24.4919C5.24762 25.3541 6.486 25.3939 6.486 27.2472C6.486 26.7986 6.32596 25.7164 7.17473 25.2611L6.78607 25.2962C6.77098 25.2385 6.74407 25.1846 6.70701 25.1378C6.66996 25.091 6.62357 25.0523 6.57076 25.0242C6.51796 24.9962 6.4599 24.9793 6.40022 24.9747C6.34055 24.9701 6.28056 24.9778 6.22404 24.9974C6.67081 24.2471 8.41501 24.766 10.866 22.6869C13.038 20.8487 12.8951 17.9282 13.5086 16.8204L12.9227 17.4056C12.0577 18.3304 12.0215 19.8404 10.928 21.5895C11.1533 21.0947 11.23 20.5456 11.149 20.0083M15.3957 18.5087C15.2823 18.5087 15.2575 18.5476 15.2575 18.5694C15.2499 18.6102 15.3099 18.6643 15.3937 18.6823C15.8063 18.78 16.2281 18.8341 16.6521 18.8435C17.0755 18.8345 17.4967 18.7805 17.9086 18.6823C17.9924 18.6605 18.0496 18.6083 18.0467 18.5694C18.0467 18.5476 18.0191 18.5087 17.9038 18.5087C17.8838 18.5087 17.076 18.5305 16.6531 18.5305C16.2301 18.5305 15.4204 18.5087 15.3957 18.5087ZM14.8736 15.9013C14.8993 16.4457 15.6948 16.5947 16.0167 16.5482C15.0175 16.3224 15.0746 15.7676 15.4195 15.6566C15.4347 15.4346 14.8479 15.4735 14.8708 15.9013M14.4431 16.6003C14.4688 16.8118 15.4033 17.1694 15.4033 17.1694C15.294 17.2266 15.1724 17.2565 15.0489 17.2565C14.9255 17.2565 14.8038 17.2266 14.6945 17.1694C14.7948 17.3009 14.9245 17.4073 15.0734 17.4801C15.2222 17.5529 15.3861 17.5901 15.5519 17.5887C15.5519 17.5887 15.5052 17.8391 14.8336 17.6607C14.9393 17.8525 15.1029 18.0062 15.3012 18.1004C15.4995 18.1945 15.7225 18.2242 15.9386 18.1853C16.0915 18.0558 16.2095 17.8904 16.2821 17.7041C16.3546 17.5178 16.3793 17.3165 16.354 17.1182C15.7482 16.8435 15.1015 16.6688 14.4392 16.6013M14.0582 28.1492C14.0582 26.9115 13.6772 26.9949 13.6772 25.4935C13.6772 23.8592 15.0803 23.4181 15.2013 22.132C15.3633 20.3953 13.6324 20.3497 14.1887 17.9178C13.4533 21.1313 14.4954 20.8752 14.4954 22.0239C14.4954 23.1725 12.6588 23.3157 12.6588 25.3294C12.6588 26.5169 13.3923 26.847 13.3923 28.1094C13.428 28.4289 13.3689 28.7518 13.2225 29.0384C13.0761 29.3249 12.8487 29.5625 12.5683 29.7219C12.7733 29.7262 12.9769 29.6878 13.1659 29.6089C13.355 29.5301 13.5254 29.4126 13.666 29.2642C13.8067 29.1157 13.9145 28.9396 13.9826 28.747C14.0506 28.5545 14.0774 28.3499 14.0611 28.1464M14.8574 27.546C15.991 26.1337 15.2632 26.8271 15.671 24.9263C15.9224 23.7511 16.2816 23.7881 16.6626 22.832C16.8593 22.1906 16.8563 21.5049 16.6539 20.8652C16.4515 20.2256 16.0594 19.6619 15.529 19.2485C15.8231 19.6955 16.0093 20.2041 16.0729 20.7347C16.1365 21.2652 16.0759 21.8032 15.8958 22.3065C15.6033 23.3034 15.1927 23.4087 14.7526 24.5412C14.5543 25.0842 14.4998 25.6689 14.5945 26.239L14.8574 27.546ZM18.001 18.9365C18.8945 20.5101 17.1151 21.0431 17.6619 23.477C18.0344 25.1264 18.8698 24.9746 18.9441 26.1953C19.0184 27.4161 18.2773 28.2508 18.8231 29.0617C19.3689 29.8727 20.4178 30.2218 20.0777 31.248C20.6302 30.2379 19.5785 29.4459 19.3032 28.3333C19.0965 27.4796 20.3882 26.7208 20.0196 25.6149C19.8414 25.1526 19.63 24.7038 19.387 24.2718L18.7545 23.0008C17.9924 21.3884 19.5166 20.2274 18.001 18.9365ZM18.5164 17.0765C18.4887 17.1505 18.2706 17.2358 17.8276 17.4028C17.7424 17.5387 17.6295 17.6554 17.4961 17.7451C18.0229 17.8912 18.6088 17.3658 18.5164 17.0765ZM17.7276 11.8398C18.4706 11.8398 18.5802 11.4955 19.146 11.4955C19.7119 11.4955 19.9081 11.8645 20.3654 11.8645C20.8226 11.8645 21.0874 11.542 20.8788 11.2584C20.593 11.7326 20.0691 11.0895 19.6862 11.0895C19.2476 11.1134 18.8251 11.2618 18.4687 11.5173C18.0429 11.7345 17.6333 11.5287 17.7933 11.2783C17.4618 11.2783 17.2513 10.8723 17.8153 10.3981C16.8236 10.5072 16.9817 11.8398 17.7276 11.8398ZM14.9213 11.154C14.363 11.154 13.7172 11.7715 13.6 11.3693C13.5124 11.0582 14.0858 10.5394 14.8384 10.4872C14.456 10.4414 14.0689 10.5178 13.7329 10.7053C13.397 10.8929 13.1296 11.1818 12.9694 11.5306C12.7684 11.5495 12.4207 11.2916 12.4207 11.2916C12.5941 12.7551 13.9639 11.4699 14.4869 11.4699C14.9536 11.4699 16.4226 12.5246 16.4502 11.2138C15.9348 11.8104 15.5719 11.1531 14.926 11.1531M10.1935 5.81965C10.2659 4.84838 10.8899 3.99095 10.8803 3.00072C10.8689 1.54572 9.19233 2.92104 8.93704 2.30926C8.26545 0.686371 13.2237 -0.133104 13.1637 2.74275C13.1304 4.26035 12.7093 5.92971 13.8991 6.10233L14.8003 2.43731L15.7472 7.69673C14.8832 6.61449 13.1751 7.06124 12.7941 5.32548C12.5083 4.06682 14.0973 0.907355 10.6031 1.14163C14.6431 2.36615 8.35309 5.77602 12.0901 7.95377C13.0894 8.539 13.4409 9.57763 12.9932 10.0253C12.9332 8.5485 11.4595 8.36448 10.9203 7.73847C10.5199 7.31559 10.265 6.77675 10.1926 6.2L8.80272 5.53609L10.1935 5.81965ZM10.9194 2.23527C10.6165 1.21374 8.93513 1.66616 9.27616 2.0778C9.4362 2.2675 10.0916 1.69842 10.9194 2.23527ZM11.9206 5.4118C10.2716 8.49917 15.9663 7.09636 15.228 9.7237C16.5216 6.65151 11.3404 8.24876 11.9206 5.4118ZM14.9413 13.6989C14.465 13.439 13.2942 13.3821 12.7903 12.6555C13.3266 12.4108 13.8829 11.9422 14.3478 12.038C15.4052 12.2458 15.0499 13.5357 14.9413 13.7008M14.1611 12.2258C14.039 12.2031 13.9127 12.224 13.8046 12.285C13.6965 12.346 13.6135 12.4431 13.5703 12.5591C13.5271 12.6751 13.5265 12.8025 13.5685 12.9189C13.6106 13.0353 13.6926 13.1332 13.8001 13.1952C13.8738 12.8567 13.9953 12.5304 14.1611 12.2258ZM14.565 12.4535C14.4806 12.7553 14.3474 13.0414 14.1706 13.3005C14.2787 13.3287 14.3933 13.3182 14.4944 13.2709C14.5955 13.2235 14.6766 13.1422 14.7236 13.0413C14.7706 12.9403 14.7805 12.8261 14.7515 12.7187C14.7225 12.6112 14.6565 12.5174 14.565 12.4535ZM18.8174 11.9792C19.2937 11.8844 19.8652 12.3586 20.4139 12.6147C19.8967 13.3631 18.685 13.4228 18.1992 13.6894C18.0896 13.5243 17.7228 12.1917 18.8174 11.9821M19.3756 13.1753C19.4849 13.1113 19.5681 13.0112 19.6107 12.8924C19.6533 12.7735 19.6525 12.6435 19.6086 12.5252C19.5646 12.4068 19.4803 12.3076 19.3703 12.2449C19.2603 12.1822 19.1317 12.16 19.007 12.1822C19.1768 12.494 19.301 12.8284 19.3756 13.1753ZM18.9946 13.2825C18.8143 13.0173 18.6774 12.7253 18.5888 12.4174C18.5016 12.4859 18.4402 12.5817 18.4145 12.6893C18.3889 12.7968 18.4005 12.9098 18.4475 13.01C18.4945 13.1102 18.5741 13.1916 18.6734 13.241C18.7727 13.2905 18.8859 13.3051 18.9946 13.2825Z" fill="#FEFEFE"/>
<path d="M141.144 3.00726C142.627 2.94884 144.087 3.38733 145.29 4.25263L144.699 4.74395C143.77 4.08399 142.647 3.75031 141.507 3.79545C141.168 3.77837 140.829 3.83162 140.512 3.95188C140.195 4.07214 139.907 4.25677 139.666 4.49398C139.424 4.73119 139.235 5.01582 139.11 5.32976C138.985 5.6437 138.928 5.98007 138.94 6.31751C138.94 8.18511 140.75 9.89053 142.89 12.0844C144.765 14.0175 146.773 16.2132 146.773 18.869C146.773 22.3102 143.68 24.4083 139.762 24.4083C138.154 24.491 136.572 23.9712 135.329 22.9514L135.856 22.3291C136.904 23.1973 138.234 23.6565 139.597 23.621C141.569 23.621 143.053 22.6052 143.053 20.9007C143.053 19.0986 141.078 17.0014 139.169 15.0352C136.999 12.7749 134.89 10.4824 134.89 7.98972C134.89 4.94314 137.425 3.01009 141.143 3.01009M121.463 8.51138C116.528 8.51138 113.795 11.9857 113.795 16.4427C113.795 21.3569 116.592 24.4102 121.496 24.4102C123.085 24.5208 124.655 24.0154 125.878 22.9998L125.351 22.5084C124.544 23.0829 123.581 23.4024 122.589 23.4256C119.529 23.4256 118.507 20.2491 118.507 16.4133C118.507 11.9895 119.561 9.43239 122.293 9.43239C123.206 9.42738 124.101 9.69136 124.865 10.1912L125.391 9.63536C124.249 8.8345 122.868 8.44147 121.473 8.51995M53.3036 24.4054C58.7334 24.4054 62.4485 20.5384 62.4485 14.9678C62.4366 13.4729 62.1278 11.9952 61.5398 10.6196C60.9517 9.24411 60.0962 7.99802 59.0224 6.95317C57.9486 5.90832 56.6778 5.08533 55.2831 4.53166C53.8885 3.978 52.3976 3.70457 50.8964 3.72714C44.3139 3.72714 39.5414 8.34729 39.5414 14.8028C39.5237 17.0875 40.1387 19.333 41.3189 21.2925L41.9762 20.9624C41.1179 19.2879 40.6673 17.4358 40.6607 15.5559C40.6607 10.084 44.6121 7.00423 49.5808 7.00423C50.7168 6.95334 51.851 7.13757 52.9118 7.54523C53.9727 7.95289 54.9371 8.57514 55.7442 9.3727C56.5513 10.1703 57.1835 11.1258 57.6009 12.179C58.0184 13.2321 58.212 14.36 58.1694 15.4914C58.1694 20.178 55.5717 23.5537 51.3917 23.5537V12.0256H47.0098V31.0601H51.3917V24.3134C52.0246 24.3798 52.6606 24.4114 53.2969 24.4083M74.4255 24.0725H78.8075V8.99988H74.4255V20.0755C74.3687 20.8963 74.0068 21.6666 73.4105 22.236C72.8141 22.8054 72.026 23.1332 71.2 23.1553C69.5216 23.1553 68.5985 22.0086 68.5985 19.6809C68.5985 17.0944 70.4761 8.99797 70.4761 8.99797H66.0941C66.0941 8.99797 64.2499 17.0925 64.2499 19.5491C64.2499 22.4971 66.357 24.3988 69.4835 24.3988C70.4503 24.4558 71.4151 24.2588 72.2814 23.8274C73.1476 23.3961 73.8847 22.7456 74.4189 21.9412V24.0725H74.4255ZM99.4093 24.0725H103.791V0.149422H99.4093V24.0725ZM89.8652 24.3988C89.1611 24.4366 88.4594 24.2901 87.8298 23.9739C87.2002 23.6577 86.6648 23.1829 86.2768 22.5967V24.0716H81.8949V0.148438H86.2768V10.3742C86.7281 9.73723 87.3395 9.22945 88.0499 8.90169C88.7602 8.57393 89.5446 8.4377 90.3244 8.50664C94.372 8.50664 97.104 11.2914 97.104 15.8471C97.104 21.0582 94.2091 24.3988 89.8652 24.3988ZM89.007 23.4816C92.0353 23.4816 92.564 19.386 92.564 15.9116C92.564 12.0446 91.4123 9.35748 89.2403 9.35748C87.8238 9.35748 86.5083 10.4729 86.2778 12.6336V20.5649C86.2794 21.3044 86.5617 22.0158 87.068 22.5567C87.5743 23.0976 88.2663 23.428 89.007 23.4816ZM106.924 9.00364H111.306V24.0782H106.924V9.00364ZM109.13 2.05684C109.442 2.04355 109.753 2.09441 110.044 2.20626C110.336 2.31812 110.601 2.48857 110.823 2.70697C111.046 2.92537 111.22 3.18704 111.336 3.47566C111.453 3.76427 111.508 4.07363 111.499 4.38445C111.508 4.69519 111.452 5.00446 111.336 5.29294C111.22 5.58143 111.045 5.843 110.823 6.06134C110.6 6.27969 110.335 6.45015 110.044 6.56211C109.753 6.67406 109.442 6.72512 109.13 6.71211C108.818 6.7254 108.506 6.67454 108.215 6.56269C107.923 6.45083 107.658 6.28038 107.436 6.06198C107.214 5.84358 107.039 5.58191 106.923 5.29329C106.807 5.00467 106.751 4.69526 106.761 4.38445C106.751 4.07363 106.807 3.76427 106.923 3.47566C107.039 3.18704 107.214 2.92537 107.436 2.70697C107.658 2.48857 107.923 2.31812 108.215 2.20626C108.506 2.09441 108.818 2.04355 109.13 2.05684ZM127.991 9.00364H132.373V24.0782H127.991V9.00364ZM130.196 2.05684C130.508 2.04355 130.82 2.09441 131.111 2.20626C131.403 2.31812 131.668 2.48857 131.89 2.70697C132.112 2.92537 132.287 3.18704 132.403 3.47566C132.519 3.76427 132.575 4.07363 132.565 4.38445C132.574 4.69519 132.519 5.00446 132.403 5.29294C132.286 5.58143 132.112 5.843 131.889 6.06134C131.667 6.27969 131.402 6.45015 131.111 6.56211C130.82 6.67406 130.508 6.72512 130.196 6.71211C129.884 6.7254 129.573 6.67454 129.282 6.56269C128.99 6.45083 128.725 6.28038 128.503 6.06198C128.28 5.84358 128.106 5.58191 127.99 5.29329C127.873 5.00467 127.818 4.69526 127.827 4.38445C127.818 4.07355 127.873 3.76406 127.989 3.47531C128.105 3.18657 128.28 2.92479 128.502 2.70633C128.724 2.48787 128.99 2.31744 129.281 2.20568C129.573 2.09393 129.884 2.04326 130.196 2.05684Z" fill="#FEFEFE"/>
<path d="M105.057 28.5605H105.475L106.706 32.2967L107.989 28.5729H108.521L106.917 33.0754H106.487L105.256 29.4474L104.017 33.0754H103.594L101.991 28.5729H102.543L103.826 32.2967L105.057 28.5605Z" fill="#FEFEFE"/>
<path d="M111.304 33.1208C110.844 33.1259 110.393 32.9948 110.008 32.744C109.622 32.4933 109.321 32.1343 109.141 31.7125C108.961 31.2908 108.911 30.8253 108.997 30.3753C109.083 29.9252 109.302 29.5107 109.625 29.1845C109.948 28.8583 110.362 28.6351 110.812 28.5432C111.263 28.4512 111.731 28.4946 112.157 28.668C112.583 28.8414 112.948 29.1368 113.205 29.5169C113.462 29.897 113.6 30.3445 113.601 30.8027C113.611 31.1071 113.558 31.4104 113.447 31.694C113.335 31.9776 113.167 32.2357 112.952 32.4525C112.737 32.6694 112.481 32.8404 112.197 32.9553C111.914 33.0702 111.61 33.1265 111.304 33.1208ZM111.304 28.9626C111.066 28.9635 110.831 29.0124 110.612 29.1063C110.393 29.2002 110.196 29.3371 110.031 29.5089C109.867 29.6807 109.74 29.8838 109.656 30.106C109.573 30.3282 109.536 30.5649 109.547 30.8018C109.537 31.0401 109.575 31.2779 109.66 31.5012C109.744 31.7244 109.872 31.9285 110.037 32.1013C110.203 32.2741 110.401 32.4121 110.621 32.5071C110.84 32.6021 111.077 32.6521 111.317 32.6542C111.555 32.6534 111.791 32.6046 112.01 32.5106C112.229 32.4167 112.426 32.2796 112.591 32.1076C112.755 31.9355 112.883 31.7322 112.966 31.5097C113.049 31.2872 113.086 31.0503 113.075 30.8131C113.085 30.5749 113.046 30.3372 112.962 30.1141C112.877 29.891 112.748 29.6871 112.583 29.5145C112.418 29.3418 112.22 29.204 112 29.1092C111.78 29.0144 111.544 28.9646 111.304 28.9626Z" fill="#FEFEFE"/>
<path d="M118.027 33.0435L116.725 31.3058H115.441V33.0435H114.935V28.5723H116.866C117.853 28.5723 118.485 29.1025 118.485 29.9068C118.486 30.2381 118.36 30.5573 118.134 30.8001C117.908 31.043 117.597 31.1915 117.266 31.2157L118.645 33.0425L118.027 33.0435ZM116.827 29.0389H115.441V30.8525H116.821C117.494 30.8525 117.975 30.5082 117.975 29.9267C117.975 29.3681 117.555 29.0389 116.827 29.0389Z" fill="#FEFEFE"/>
<path d="M119.834 28.5723H120.341V32.5768H122.868V33.0435H119.834V28.5723Z" fill="#FEFEFE"/>
<path d="M125.625 33.0434H124.063V28.5722H125.622C125.928 28.5544 126.234 28.5991 126.522 28.7034C126.81 28.8077 127.073 28.9695 127.296 29.1788C127.519 29.3882 127.697 29.6407 127.818 29.9208C127.939 30.2009 128.002 30.5027 128.002 30.8078C128.002 31.1128 127.939 31.4147 127.818 31.6948C127.697 31.9749 127.519 32.2273 127.296 32.4367C127.073 32.646 126.81 32.8078 126.522 32.9121C126.234 33.0165 125.928 33.0611 125.622 33.0434H125.625ZM125.625 29.0388H124.577V32.5777H125.625C125.864 32.5872 126.103 32.5485 126.327 32.4639C126.551 32.3793 126.755 32.2505 126.928 32.0853C127.101 31.92 127.238 31.7217 127.332 31.5023C127.426 31.2828 127.475 31.0468 127.475 30.8082C127.475 30.5697 127.426 30.3336 127.332 30.1142C127.238 29.8948 127.101 29.6965 126.928 29.5312C126.755 29.366 126.551 29.2372 126.327 29.1526C126.103 29.0679 125.864 29.0293 125.625 29.0388Z" fill="#FEFEFE"/>
<path d="M131.873 28.5605H132.29L133.522 32.2967L134.805 28.5729H135.337L133.733 33.0754H133.303L132.072 29.4474L130.833 33.0754H130.41L128.806 28.5729H129.358L130.641 32.2967L131.873 28.5605Z" fill="#FEFEFE"/>
<path d="M137.068 28.5723V33.0435H136.562V28.5723H137.068Z" fill="#FEFEFE"/>
<path d="M140.203 33.0434H138.644V28.5722H140.203C140.509 28.5544 140.815 28.5991 141.103 28.7034C141.391 28.8077 141.654 28.9695 141.877 29.1788C142.1 29.3882 142.278 29.6407 142.399 29.9208C142.52 30.2009 142.583 30.5027 142.583 30.8078C142.583 31.1128 142.52 31.4147 142.399 31.6948C142.278 31.9749 142.1 32.2273 141.877 32.4367C141.654 32.646 141.391 32.8078 141.103 32.9121C140.815 33.0165 140.509 33.0611 140.203 33.0434ZM140.203 29.0388H139.155V32.5777H140.203C140.442 32.5872 140.681 32.5485 140.905 32.4639C141.129 32.3793 141.334 32.2505 141.506 32.0853C141.679 31.92 141.817 31.7217 141.91 31.5023C142.004 31.2828 142.053 31.0468 142.053 30.8082C142.053 30.5697 142.004 30.3336 141.91 30.1142C141.817 29.8948 141.679 29.6965 141.506 29.5312C141.334 29.366 141.129 29.2372 140.905 29.1526C140.681 29.0679 140.442 29.0293 140.203 29.0388Z" fill="#FEFEFE"/>
<path d="M147.168 29.0323H144.43V30.5594H146.881V31.0184H144.43V32.5835H147.201V33.0435H143.923V28.5723H147.168V29.0323Z" fill="#FEFEFE"/>
</g>
<defs>
<clipPath id="clip0_14194_41973">
<rect width="146.435" height="33.0372" fill="white" transform="translate(0.768555 0.0839844)"/>
</clipPath>
</defs>
</svg>
