<?xml version="1.0" encoding="UTF-8"?>
<svg width="1902px" height="2372px" viewBox="0 0 1902 2372" version="1.1" xmlns="http://www.w3.org/2000/svg" xmlns:xlink="http://www.w3.org/1999/xlink">
    <title>logo-porsche</title>
    <g id="Page-1" stroke="none" stroke-width="1" fill="none" fill-rule="evenodd">
        <g id="logo-porsche" fill="#FFFFFF">
            <path d="M1489.61,2035.27 C1346.81,2165.55 1223.88,2235.77 964.92,2371.8 C723.86,2262.01 566.524,2153.79 430.082,2047.21 C241.528,1900.21 106.085,1661.51 94.334,1515.12 L0.264,121.792 C637.534,-44.0913 1315.37,-40.3171 1901.72,132.933 L1806.28,1512.15 C1794.13,1637.06 1682.53,1879.92 1489.61,2035.27 Z M1697.1,1466.46 L1783.23,234.836 C1278.6,73.921 674.16,71.534 117.239,217.924 L205.148,1465.67 C214.304,1595.34 307.583,1793.66 486.397,1945.63 C594.007,2037.13 804.84,2190.69 960.56,2249.56 C1139.98,2158.67 1303.06,2045.69 1432.36,1934.11 C1592.67,1787.89 1687.35,1606.09 1697.1,1466.46 Z M1411.66,1901.58 C1287.73,2008.61 1120.88,2128.55 960.56,2205.13 C817.36,2160.77 605.732,1997.26 503.893,1909.35 C326.272,1755.79 254.07,1595.09 243.136,1443.1 L156.809,252.06 C687.078,112.635 1265.88,112.635 1746.8,265.977 L1661.48,1441.12 C1649.15,1597.45 1576.54,1746.83 1411.66,1901.58 Z M196.445,275.211 L213.552,480.484 C719.75,353.782 1250.03,366.518 1690.19,499.783 L1709.08,290.931 C1252.99,150.896 699.27,143.335 196.445,275.211 Z M1455.24,351.396 L1341.07,332.499 L1336.68,386.207 L1299.5,380.63 L1308.24,238.222 L1346.24,243.799 L1342.26,298.492 L1458.03,317.181 L1461.8,262.488 L1500.58,269.842 L1488.86,412.652 L1451.06,405.7 L1455.24,351.396 Z M904.24,303.07 C890.31,303.07 879.17,299.296 871.82,286.962 C865.46,276.82 865.46,243.799 871.82,232.865 C878.78,220.142 891.31,216.562 901.66,216.562 L1063.56,216.757 L1063.94,251.762 L910.81,251.554 C903.25,251.554 903.05,268.467 911.4,268.467 L1032.13,268.467 C1046.26,268.467 1058.78,277.014 1062.75,288.155 C1067.13,300.087 1066.34,327.142 1062.75,338.283 C1059.38,349.424 1046.64,355.585 1030.73,355.585 L871.03,355.585 L870.82,319.775 L1013.02,319.775 C1015.12,319.61 1017.08,318.658 1018.52,317.11 C1019.95,315.562 1020.74,313.531 1020.74,311.423 C1020.74,309.315 1019.95,307.284 1018.52,305.736 C1017.08,304.188 1015.12,303.236 1013.02,303.07 L904.24,303.07 Z M810.58,317.298 C810.54,315.517 810.15,313.76 809.43,312.131 C808.71,310.501 807.67,309.032 806.38,307.81 C805.08,306.587 803.55,305.636 801.89,305.011 C800.22,304.387 798.44,304.102 796.66,304.173 L689.244,311.929 L691.423,365.234 L656.612,368.814 L649.245,228.196 L809.18,216.251 C829.86,214.668 841.99,230.18 842.97,243.111 C844.17,258.428 844.76,278.117 832.82,286.275 C842.78,293.628 845.36,304.575 845.56,319.892 L845.96,355.896 L811.15,357.284 L810.58,317.298 Z M787.76,271.658 C801.48,270.866 800.29,249.57 787.76,250.776 L685.522,258.532 L686.715,278.026 L787.76,271.658 Z M452.831,252.981 C485.645,245.225 552.867,234.486 588.08,231.892 C604.189,230.712 616.717,239.065 618.909,251.593 C624.084,280.438 627.275,310.269 623.695,350.254 C622.696,361.785 612.749,370.941 599.623,373.73 C554.488,383.677 503.751,389.047 466.151,392.627 C456.606,393.625 441.496,386.064 438.902,374.132 C432.339,345.079 429.953,304.51 431.937,276.664 C432.741,266.301 442.287,255.368 452.831,252.981 Z M580.584,338.634 C585.149,337.648 587.146,332.667 587.548,329.088 C589.144,318.141 587.743,289.504 585.149,279.945 C584.358,276.171 581.18,273.785 574.021,274.381 C554.527,275.574 502.998,282.941 477.552,288.505 C470.795,290.101 468.201,294.069 467.811,297.649 C466.618,307 469.394,332.654 471.793,346.986 C472.39,350.371 476.774,352.745 480.146,352.563 C514.541,349.775 555.124,344.21 580.584,338.634 Z M1144.63,258.908 C1137.05,258.701 1131.89,263.279 1131.31,267.261 C1129.5,278.999 1128.89,294.108 1128.89,313.809 C1128.89,316.39 1133.28,323.55 1137.05,324.146 C1171.28,328.919 1237.7,334.898 1273.9,337.285 L1271.72,374.08 C1224.17,371.901 1174.44,364.34 1122.94,360.747 C1106.04,359.554 1093.71,350.41 1093.1,334.107 C1092.11,307.247 1093.71,266.664 1098.47,243.007 C1101.66,228.481 1115.56,220.933 1131.29,221.322 C1178.81,223.112 1216.61,227.288 1278.88,235.641 L1276.49,272.254 C1246.26,269.647 1188.98,260.698 1144.63,258.908 Z M366.284,269.582 C414.415,258.247 421.769,343.77 381.588,353.717 L269.413,381.771 L274.782,437.061 L239.582,446.425 L227.054,302.396 L366.284,269.582 Z M365.7,325.599 C377.231,323.018 375.648,302.344 363.301,304.925 L262.059,329.386 L264.458,350.682 L365.7,325.599 Z M1556,372.718 L1553.61,395.791 L1664.79,423.832 L1661.81,456.062 L1512.63,420.862 L1525.57,275.847 L1675.74,312.253 L1672.37,346.065 L1560.58,319.01 L1558.4,343.484 L1669.38,370.526 L1666.59,399.163 L1556,372.718 Z M480.055,785.429 C464.543,806.116 450.224,837.943 443.467,864.985 C441.068,874.142 441.068,877.514 442.676,883.48 C457.384,876.918 476.488,870.549 487.616,866.97 C492,857.242 494.373,846.089 498.161,837.139 C504.114,823.223 507.901,817.244 514.075,807.503 C531.778,780.059 569.17,753.004 596.809,753.601 C587.652,761.552 568.561,781.447 561.012,793.379 C554.852,803.327 549.08,814.066 544.696,825.207 C540.922,835.168 539.729,842.509 538.73,850.667 C553.049,846.491 567.173,843.508 576.316,842.911 C582.49,839.526 584.474,832.95 587.86,826.789 C598.391,807.101 619.078,785.014 632.216,777.868 C642.748,772.096 658.272,766.532 669.401,770.112 C657.468,779.061 644.94,793.379 639.375,801.939 C633.604,811.083 624.253,828.8 624.655,837.139 C634.408,837.944 648.325,837.139 653.902,835.752 L653.292,808.295 L939.11,808.087 L938.91,417.036 C716.53,417.036 472.883,438.125 214.512,510.327 L267.818,1244.87 L653.085,1244.87 L653.085,1101.29 C637.573,1089.76 565.565,1081.4 521.221,1098.7 C510.482,1102.88 475.477,1118 459.563,1130.52 L414.817,1165.94 C410.433,1169.52 410.044,1177.27 410.044,1183.22 C410.044,1196.35 394.727,1206.3 386.18,1203.51 C379.215,1201.12 369.669,1199.74 360.915,1201.73 C351.563,1203.7 343.224,1191.95 342.42,1185.22 C341.227,1176.86 347.802,1165.94 348.191,1162.34 C348.593,1158.96 346.401,1145.63 358.723,1137.48 C364.287,1133.91 372.043,1134.1 377.62,1137.09 C379.241,1138.04 381.162,1138.32 382.989,1137.9 C384.987,1137.09 390.356,1132.33 391.744,1131.14 C392.34,1123.19 391.147,1110.65 391.951,1103.69 C393.741,1090.17 394.532,1082.41 398.708,1069.27 C402.288,1057.94 410.044,1041.44 415.803,1032.07 C426.153,1015.18 446.632,998.86 461.962,1000.25 C455.983,1008.21 453.999,1012.39 449.628,1020.54 C441.47,1035.46 433.909,1060.13 430.342,1076.83 C427.942,1087.57 426.762,1095.94 427.359,1107.26 C439.096,1098.52 451.418,1091.35 459.576,1086.78 C463.35,1067.08 471.119,1045.81 479.458,1030.1 C489.406,1011.19 516.254,990.7 533.776,992.3 C517.265,1010.19 505.515,1035.06 501.144,1050.97 C499.354,1057.33 497.162,1064.71 498.174,1068.68 C504.723,1065.1 518.264,1061.52 524.814,1060.92 C529.197,1049.99 535.163,1036.85 540.144,1029.09 C555.656,1005.21 580.117,990.7 594.046,991.3 C583.1,1006.02 573.748,1019.34 566.991,1039.04 C564.994,1044.8 564.008,1050.97 564.008,1053.95 C572.555,1052.57 585.888,1052.57 591.258,1052.57 C601.205,1043.62 608.352,1032.87 620.297,1023.72 C630.245,1015.95 648.74,1005.42 653.111,1004.62 L653.111,883.882 C653.111,881.288 621.49,878.915 605.771,880.899 C564.008,885.88 459.589,918.693 415.427,949.13 C414.428,951.73 414.635,966.24 411.639,973 C409.058,979.16 402.496,985.53 396.141,988.31 C384.805,993.3 371.667,978.17 365.895,980.36 C359.929,982.56 347.206,987.72 333.471,977.98 C327.31,973.61 324.132,961.26 326.311,952.13 C328.309,945.55 333.873,940.39 338.243,936.22 C342.225,932.234 339.437,916.916 353.742,907.773 C363.703,901.405 377.412,906.579 387.97,912.143 C390.116,911.461 392.083,910.309 393.728,908.771 C395.116,904.582 397.308,891.859 399.305,881.911 C401.692,871.159 402.496,864.207 405.673,854.272 C413.637,830.214 432.715,795.597 452.624,777.491 C468.33,763.562 492.791,752.434 510.897,753.627 C509.094,756.377 486.631,776.48 480.055,785.429 Z M526.033,549.976 C541.155,528.9 580.934,497.072 611.568,498.875 C594.85,513.388 580.13,529.497 569.793,546.604 C556.278,568.691 545.332,596.33 542.945,617.626 C553.088,613.839 576.952,607.082 590.674,604.099 C602.814,577.64 618.728,548.406 638.429,532.687 C652.54,521.352 672.825,511.611 691.734,513.79 C687.351,519.964 680.191,524.737 674.822,529.704 C665.082,538.251 658.324,549.794 652.942,561.532 C648.96,570.273 642.203,596.537 641.995,597.73 C655.717,597.536 679.984,599.118 685.159,600.713 C701.28,579.625 736.49,548.99 778.64,555.955 C760.34,565.89 726.93,594.916 728.93,610.843 C756.38,628.56 797.35,665.744 799.14,700.166 C780.45,680.672 749.62,661.373 734.09,656.004 C696.896,642.878 652.54,641.088 615.55,647.846 C538.38,662.372 470.159,695.782 404.726,734.977 C403.144,745.508 397.36,761.422 392.587,766.804 C387.814,772.174 380.655,777.336 372.899,778.529 C363.158,780.124 353.198,776.143 344.858,771.772 C339.476,768.789 325.365,772.576 316.415,767.79 C310.255,764.599 300.696,755.65 303.29,741.539 C305.469,729.01 317.998,721.449 319.787,709.517 C322.368,692.008 335.105,684.446 341.667,683.266 C348.827,681.878 356.194,684.265 362.743,687.248 C365.532,688.636 368.502,691.022 371.109,691.826 C373.69,691.022 377.464,687.844 379.656,686.859 C380.253,684.861 386.828,648.468 390.395,632.554 C393.975,616.64 400.135,603.1 405.31,588.198 C420.835,544.049 468.758,499.485 507.162,501.871 C505.164,504.659 492.83,513.609 475.723,533.504 C448.084,565.916 441.12,600.337 430.77,659.415 C452.053,649.467 470.548,642.308 489.847,635.343 C494.448,617.031 500.57,599.136 508.147,581.843 C513.115,570.663 519.081,559.729 526.033,549.976 Z M1685.22,598.885 L974.37,599.494 L974.98,808.736 L1669.32,808.334 L1685.22,598.885 Z M1055.99,1682.26 C1047.83,1686.44 1037.7,1683.86 1033.53,1682.05 C1026.35,1679.07 1021.59,1671.69 1020.98,1663.16 C1020.4,1656.4 1026.96,1648.24 1028.35,1640.86 C1028.94,1637.88 1025.77,1623.18 1038.29,1615.61 C1040.7,1614.22 1047.83,1611.63 1052.8,1612.45 C1057.79,1613.43 1061.76,1616.62 1066.73,1617.41 C1073.49,1615.02 1079.96,1611.88 1086.03,1608.06 C1090.01,1592.73 1092.99,1575.05 1094.96,1559.32 C1059.38,1577.03 1012.81,1588.96 973.24,1590.55 L973.45,2162.82 C1139.53,2078.46 1321.71,1940.44 1399.27,1864.64 C1524.8,1742.31 1609.32,1618.4 1622.24,1439.78 L1633.96,1277.07 L1256.67,1276.67 C1256.67,1368.95 1225.84,1465.24 1137.71,1534.85 C1132.75,1554.94 1130.37,1588.75 1130.75,1589.57 C1142.89,1584.57 1154.24,1580.22 1164.18,1577.23 C1164.98,1576.04 1179.1,1545.21 1185.47,1536.86 C1200.38,1513.78 1220.47,1494.07 1244.92,1480.95 C1260.25,1473.19 1278.94,1466.03 1295.45,1472.2 C1273.77,1482.54 1256.84,1501.23 1246.71,1511.97 C1237.36,1521.93 1226.43,1536.64 1221.46,1551.76 C1220.78,1554.38 1220.25,1557.03 1219.86,1559.71 C1230.02,1556.52 1262.42,1551.76 1275.94,1549.96 C1277.54,1549.75 1281.72,1540.81 1284.91,1536.43 C1288.86,1531.06 1291.26,1527.69 1297.62,1520.52 C1313.93,1502.81 1341.57,1483.92 1368.42,1488.09 C1353.72,1497.44 1337.59,1512.36 1324.67,1535.82 C1322.87,1539.41 1320.5,1544.38 1321.48,1546.56 C1325.46,1547.36 1345.16,1546.96 1357.1,1548.36 C1370.81,1539.83 1385.34,1532.25 1401.05,1528.88 C1418.75,1524.9 1441.84,1528.08 1450.98,1536.43 C1440.25,1535.82 1430.09,1537.82 1420.36,1541.59 C1414.79,1543.8 1403.64,1548.96 1399.47,1556.11 C1410,1559.09 1427.33,1570.44 1438.25,1579.59 C1445.82,1585.95 1454.97,1595.12 1460.74,1603.46 C1475.25,1623.17 1478.25,1658.55 1470.46,1669.11 C1468.29,1662.92 1465.9,1656.78 1462.51,1651.01 C1455.55,1639.28 1444.6,1626.53 1435.25,1619.57 C1390.12,1585.17 1325.09,1583.37 1271.96,1594.11 C1226.41,1603.46 1144.26,1620.58 1090.57,1658.75 C1091.96,1665.51 1087.78,1676.85 1081.63,1681.21 C1073.49,1687.22 1061.97,1679.07 1055.99,1682.26 Z M1144.63,1746.58 C1150.58,1737.44 1157.75,1724.12 1161.32,1718.33 C1173.86,1698.24 1191.97,1683.33 1204.27,1677.54 C1221.2,1669.38 1248.42,1664.62 1260.56,1670.58 C1247.24,1673.77 1237.1,1679.93 1227.76,1686.49 C1218.22,1693.08 1199.49,1710.17 1194.73,1717.35 C1189.36,1725.3 1185.79,1732.44 1184.39,1736.24 C1199.49,1732.84 1217.61,1730.06 1226.94,1730.06 C1233.7,1721.5 1251.61,1701.03 1264.95,1691.47 C1275.69,1683.9 1298.56,1676.35 1312.87,1682.51 C1299.16,1686.89 1274.89,1706 1265.93,1719.72 C1263.96,1722.88 1262.16,1726.28 1261.76,1728.06 C1269.12,1728.67 1283.04,1730.06 1290.61,1731.04 C1291.4,1731.04 1312.09,1718.33 1321.44,1715.74 C1333.58,1712.34 1353.46,1707.98 1366.01,1721.31 C1356.86,1721.5 1348.3,1722.3 1341.53,1725.3 C1331.78,1729.65 1327.6,1732.84 1323.25,1739 C1342.32,1749.16 1362.23,1759.7 1373.96,1778.39 C1378.13,1784.96 1384.49,1800.48 1380.92,1810.61 C1374.94,1803.06 1366.78,1795.7 1360.22,1791.92 C1350.87,1786.55 1344.11,1781.39 1332.77,1777.01 C1297.18,1763.69 1250.64,1760.11 1213.43,1765.07 C1165.3,1771.23 1106.22,1795.11 1076,1815.79 C1077.97,1825.14 1073.42,1836.07 1068.05,1838.66 C1056.7,1844.44 1045.78,1834.68 1043.79,1835.29 C1040.8,1836.28 1031.65,1839.47 1025.1,1836.68 C1018.51,1834.1 1014.36,1822.54 1016.94,1815.2 C1018.91,1809.63 1026.9,1801.67 1026.9,1801.67 C1025.68,1789.54 1033.64,1782.19 1044.58,1780.78 C1050.76,1780.2 1055.11,1784.96 1060.1,1785.97 C1064.67,1783.76 1067.86,1782.19 1070.23,1780.98 C1073.02,1771.04 1077.2,1760.88 1079.98,1752.53 C1084.55,1738.42 1091.31,1725.88 1099.87,1712.77 C1112.2,1693.87 1134.09,1675.96 1160.12,1675.58 C1152.17,1681.74 1147.58,1685.13 1142.62,1691.29 C1134.08,1702.03 1127.49,1711.78 1121.54,1723.31 C1116.17,1733.47 1111.18,1748.56 1110.4,1761.9 C1121.66,1756.46 1133.07,1751.35 1144.63,1746.58 Z M1140.77,1854.16 C1147.53,1851.37 1154.68,1849.4 1161.85,1850.21 C1145.13,1860.92 1129.83,1876.63 1125.65,1895.34 C1125.25,1897.31 1125.25,1901.3 1127.04,1902.49 C1131.8,1901.3 1143.94,1898.71 1147.13,1897.12 C1149.1,1892.94 1154.07,1886.38 1157.47,1882 C1169.4,1866.11 1186.52,1850.21 1210.17,1856.16 C1194.65,1863.13 1185.7,1872.85 1178.94,1885.19 C1177.75,1887.39 1176.97,1891.57 1178.54,1891.57 C1182.52,1891.57 1197.65,1890.96 1199.83,1890.96 C1206.79,1884.8 1227.09,1873.05 1241.02,1877.43 C1234.05,1880.69 1227.67,1885.06 1222.12,1890.37 C1220.73,1891.94 1218.93,1893.94 1218.55,1896.33 C1230.86,1902.49 1241.81,1909.45 1251.96,1918.22 C1257.33,1922.79 1265.09,1931.35 1269.85,1946.05 C1257.92,1935.72 1218.93,1917.2 1197.66,1916.21 C1183.73,1915.63 1166.45,1918.21 1157.69,1920.19 C1124.07,1927.77 1089.47,1942.89 1059.83,1959.79 C1060.04,1965.56 1059.03,1972.5 1052.49,1977.88 C1048.1,1981.47 1038.56,1983.25 1034.95,1978.09 C1032.98,1975.3 1020.04,1978.3 1017.28,1974.72 C1017.28,1974.72 1013.88,1969.56 1013.48,1963.37 C1013.1,1956.81 1017.46,1952.84 1021.05,1949.44 C1022.04,1948.25 1021.84,1937.13 1030.19,1933.33 C1035.36,1930.94 1040.53,1931.76 1044.91,1934.55 C1046.72,1933.54 1048.1,1932.55 1049.3,1931.76 C1050.28,1918.82 1052.67,1906.89 1057.46,1893.97 C1064.02,1875.65 1085.5,1853.39 1103.99,1854.18 C1091.45,1867.7 1081.32,1886.39 1077.92,1901.93 C1076.94,1906.9 1076.56,1916.65 1076.56,1921.2 C1080.99,1918.49 1085.64,1916.17 1090.46,1914.27 C1092.46,1909.48 1098.22,1897.55 1101.2,1892.18 C1108.73,1878.22 1125.65,1860.34 1140.77,1854.16 Z M286.844,1460.83 C289.231,1530.04 317.479,1613.6 356.258,1671.46 L934.85,1671.46 L933.66,1590.72 C859.28,1590.72 745.7,1541.58 700.748,1461.23 L286.844,1460.83 Z M684.614,1280.32 C684.614,1648.28 1222.82,1648.28 1222.82,1284.09 L1223.03,841.329 L684.614,841.134 L684.614,1280.32 Z M858.01,1103.97 C864.37,1097 869.95,1087.86 871.13,1080.1 C872.13,1073.73 854.23,1074.14 847.67,1078.12 C844.09,1080.3 840.71,1084.68 837.92,1088.66 C835.93,1091.65 828.77,1094.03 825.19,1090.66 C821.41,1087.08 828.18,1080.91 827.97,1077.13 C827.97,1070.76 815.83,1080.31 810.27,1077.72 C806.49,1075.93 806.28,1070.17 808.88,1066.78 C810.27,1064.99 814.25,1065.78 816.04,1063.81 C817.83,1061.81 817.83,1058.83 818.42,1056.25 C819.23,1053.27 822.4,1051.87 824.39,1049.69 C831.95,1042.33 846.27,1029.79 849.06,1030 C855.61,1030.6 864.97,1033.98 870.73,1030.99 C871.92,1030.39 874.12,1028.4 872.12,1027.21 L856.61,1017.04 C856.54,1015.44 856.82,1013.84 857.44,1012.36 C858.06,1010.88 859,1009.56 860.19,1008.48 C867.35,1002.11 878.49,1006.5 887.84,1005.1 C894.4,1004.1 900.56,1001.52 905.33,996.95 C906.53,1001.73 903.54,1006.5 903.54,1011.47 C909.51,1017.04 915.68,1021.8 921.45,1027.19 C938.56,1044.28 945.92,1069.16 947.11,1091.04 C948.11,1101.18 948.11,1111.51 948.11,1128.43 C950.9,1121.27 952.69,1110.72 953.28,1101.57 C955.86,1074.51 951.69,1050.45 936.38,1029.96 C930.16,1021.32 923.1,1013.32 915.29,1006.08 C916.1,998.13 922.86,984.61 929.22,989.59 C933.4,992.76 927.24,997.54 931.61,1000.32 C936.4,1003.29 943.35,1002.91 946.33,1002.3 C953.3,1000.52 960.05,998.73 966.41,998.13 C969.39,997.94 974.36,996.54 975.37,999.52 C976.16,1001.51 973.98,1002.91 971.78,1003.7 C969.2,1004.5 965.21,1003.9 963.04,1006.08 C961.23,1007.87 959.47,1009.87 960.05,1012.45 C960.84,1015.43 964.03,1017.03 967.23,1016.03 C979.22,1012.71 991.57,1010.84 1004.01,1010.45 C1010.6,1010.45 1009.17,1015.24 1006,1017.02 C1003.83,1018.21 1000.43,1019.21 998.25,1019.42 C986.52,1020.79 977.76,1021.6 979.14,1028.35 C980.13,1032.93 987.51,1028.55 989.08,1031.93 C990.88,1035.51 985.91,1037.5 986.32,1039.9 C987.51,1047.46 1002.02,1045.86 1008.78,1044.27 C1013.75,1043.07 1021.7,1039.1 1024.08,1042.28 C1026.29,1045.06 1024.49,1049.44 1021.7,1050.25 C1014.53,1052.23 1002.22,1055.81 998.82,1059.78 C995.63,1063.57 999.43,1071.32 1003.2,1071.72 C1011.76,1072.71 1021.11,1072.71 1027.87,1074.69 C1030.43,1075.5 1032.63,1077.29 1032.63,1080.06 C1032.63,1083.05 1029.65,1084.04 1027.26,1084.84 C1022.67,1086.22 1014.93,1086.22 1010.75,1088.03 C1009.36,1088.62 1006.58,1089.62 1006.98,1091.2 C1008.17,1094.19 1014.15,1093.38 1019.12,1093.98 C1021.91,1094.19 1027.28,1096.38 1027.28,1099.36 C1027.28,1102.55 1024.49,1103.54 1019.52,1103.15 C1011.76,1102.55 1004.6,1103.54 1001.23,1104.94 C1000.22,1105.33 994.27,1106.12 994.45,1108.92 C994.85,1112.29 1001.23,1110.11 1002.81,1113.5 C1004.2,1116.69 999.84,1118.47 999.44,1122.45 C999.44,1124.04 1000.23,1124.83 1001.83,1125.43 C1006.99,1127.61 1012.94,1127.4 1018.14,1126.43 C1023.51,1125.43 1025.49,1132.6 1024.1,1133.39 C1017.16,1137.17 1001.63,1133.2 998.05,1135.38 C993.09,1138.56 1006.39,1145.72 1006,1147.31 C1005.6,1149.1 1004.01,1150.89 1002.81,1151.29 C996.06,1153.87 987.32,1148.89 982.35,1151.7 C978.17,1154.28 979.94,1160.84 977.35,1164.22 C974.16,1168.4 967.02,1166.61 963.83,1169 C959.68,1171.97 959.47,1179.14 964.03,1183.52 C967.63,1186.89 971,1189.27 975.56,1191.47 C996.26,1201.81 1017.74,1212.15 1037.83,1210.75 C1048.17,1210.16 1065.1,1209.58 1074.43,1211.97 C1086.57,1214.94 1098.91,1224.27 1105.26,1228.28 C1110.42,1231.45 1118.79,1232.26 1125.35,1229.85 C1130.11,1228.28 1133.3,1222.7 1132.32,1217.92 C1129.33,1202 1103.06,1197.05 1102.68,1181.14 C1102.28,1162.84 1100.68,1152.89 1094.73,1141.35 C1092.53,1136.97 1092.15,1126.83 1097.31,1125.44 C1101.49,1124.45 1102.89,1130.22 1106.25,1128.83 C1121.58,1122.86 1122.19,1098.6 1138.09,1094.01 C1147.41,1091.42 1178.85,1091.04 1176.26,1087.05 C1169.7,1077.69 1172.69,1066.96 1176.26,1061.98 C1178.65,1058.81 1185.2,1055.62 1187.81,1058.81 C1191.38,1062.98 1182.42,1067.95 1183.03,1074.12 C1183.61,1079.89 1191.99,1091.04 1185.61,1097 C1181.84,1100.58 1153.39,1101.79 1145.03,1114.51 C1139.87,1122.25 1139.28,1128.43 1145.43,1127.83 C1150.4,1127.23 1154.57,1121.27 1159.16,1117.88 C1167.32,1111.93 1173.89,1109.53 1178.46,1113.9 C1180.85,1116.08 1177.66,1120.27 1173.28,1121.46 C1169.71,1122.66 1160.97,1132.01 1163.34,1134.39 C1166.91,1138.17 1186.8,1120.88 1191.78,1124.45 C1194.36,1126.43 1182.03,1139.17 1184.21,1142.54 C1186.79,1146.71 1195.16,1140.15 1197.74,1143.34 C1201.51,1148.12 1191.17,1157.47 1185.2,1161.64 C1180.63,1164.61 1182.41,1175.77 1175.84,1179.15 C1168.5,1182.73 1165.1,1189.07 1165.91,1190.09 C1166.7,1191.65 1168.49,1192.87 1171.28,1191.07 C1179.44,1185.91 1189.57,1179.74 1193.74,1181.33 C1196.13,1182.33 1192.76,1193.65 1189.76,1199.02 C1186.76,1204.39 1201.9,1201.41 1199.7,1205.99 C1198.13,1209.38 1197.11,1214.55 1198.13,1219.31 C1199.32,1225.49 1181.81,1226.85 1180.21,1231.03 C1178.44,1235.82 1182.02,1237.01 1183.78,1237.22 C1194.34,1238.81 1192.95,1248.54 1188.77,1252.72 C1183.2,1258.29 1173.65,1260.47 1165.29,1259.07 C1158.11,1257.88 1142.03,1254.92 1132.49,1247.75 C1129.5,1245.57 1125.12,1247.14 1124.54,1250.14 C1123.93,1253.53 1127.51,1259.68 1129.1,1264.86 C1131.31,1272.61 1130.09,1282.37 1127.51,1289.94 C1121.95,1305.65 1107.04,1318.77 1102.86,1337.67 C1101.85,1342.64 1103.27,1348.81 1105.25,1353.58 C1109.63,1363.95 1115.99,1373.67 1123.13,1382.44 C1124.15,1385.23 1125.55,1388.39 1124.35,1390.97 C1122.76,1394.96 1110.42,1403.52 1106.84,1406.91 C1095.5,1417.45 1085.74,1431.18 1083.56,1446.1 C1082.76,1451.47 1071.23,1456.83 1063.47,1459.01 C1057.73,1460.61 1051.75,1462.2 1046.99,1465.98 C1046.38,1470.34 1048.96,1474.14 1049.54,1478.49 C1050.56,1486.07 1041.01,1489.84 1033.63,1492.23 C1030.26,1493.42 1026.67,1494.43 1022.68,1494.43 C1021.3,1494.43 1020.91,1492.02 1021.11,1490.84 C1023.29,1480.5 1025.26,1472.15 1029.25,1463.6 C1030.84,1460.41 1033.42,1457.83 1036.03,1455.63 L1064.45,1431.76 L1086.74,1399.74 C1088.71,1396.76 1089.53,1394.16 1089.53,1391.99 C1089.53,1385.8 1086.95,1380.05 1082.57,1376.07 C1076.99,1371.08 1068.83,1370.3 1062.68,1367.11 C1054.73,1363.13 1043.18,1352.01 1041.58,1351.2 C1037.22,1349.02 1034.64,1356.97 1034.03,1361.53 C1033.05,1368.5 1035.23,1375.06 1035.02,1382.03 C1035.02,1385.22 1034.64,1386.99 1033.05,1388.99 C1014.36,1399.73 991.08,1403.71 977.34,1420.8 C974.96,1423.79 972.78,1426.99 969.59,1429.17 C961.83,1434.54 948.91,1428.38 943.13,1436.72 C940.55,1440.52 943.53,1445.49 942.54,1449.66 C941.95,1452.05 937.37,1455.24 933.79,1457 C929,1459.21 923.85,1460.4 918.67,1460.8 C912.89,1458.01 916.47,1449.86 918.46,1444.09 C920.44,1438.11 923.24,1432.15 927.81,1428.17 C934.57,1422.19 943.11,1414.64 948.5,1412.06 C953.06,1409.86 960.01,1409.86 965.59,1407.68 C971.46,1405.88 977.03,1403.2 982.1,1399.73 C990.23,1394.57 997.81,1388.2 1002.39,1379.44 C1007.55,1369.48 1006.95,1356.19 1000.39,1347.63 C994.41,1339.87 987.47,1332.3 983.49,1323.57 C981.28,1318.78 982.88,1312.22 986.28,1307.84 C986.07,1307.66 983.67,1306.04 982.3,1306.45 C953.84,1307.67 925.01,1304.48 898.55,1293.93 C891.59,1291.15 884.43,1282.18 879.45,1281.6 C874.88,1280.99 872.09,1286.76 867.51,1287.96 C860.16,1289.95 850.6,1288.76 842.05,1287.96 C832.11,1286.97 811.42,1282.59 796.5,1277.83 C794.12,1278.2 791.54,1278.62 789.34,1280 C786.15,1282.18 785.56,1286.97 785.36,1290.95 C784.96,1296.32 786.56,1301.29 785.95,1306.87 C785.75,1309.65 784.16,1312.64 784.96,1315.23 C785.77,1318.4 788.94,1319.8 791.12,1321.79 C794.7,1325.17 795.3,1332.13 795.3,1337.71 C795.3,1343.87 793.12,1352.04 798.28,1356.23 C801.47,1358.78 805.84,1355.42 809.82,1356.23 C814.19,1357.02 815.58,1362.39 815.79,1366.57 C816,1371.33 812.02,1381.45 809.42,1384.07 C807.63,1385.85 804.65,1384.45 802.46,1383.46 C796.7,1380.88 791.32,1376.71 788.14,1371.13 C786.75,1368.74 786.75,1365.76 785.35,1363.18 C783.16,1358.8 779.18,1356.24 775.21,1353.25 C770.43,1349.65 769.45,1343.09 768.65,1337.33 C768.05,1331.94 769.05,1326.77 769.45,1321.39 C770.48,1310.75 769.81,1300.01 767.45,1289.58 C765.66,1281.63 761.28,1273.66 763.28,1265.71 C764.27,1261.94 766.86,1258.35 770.45,1256.75 C789.69,1255.85 808.73,1252.51 827.13,1246.82 L815.19,1235.06 C812.21,1235.06 809.82,1238.05 806.84,1238.05 C803.65,1238.05 799.28,1233.48 798.09,1231.89 C791.91,1222.74 787.94,1212.17 785.16,1201.43 C782.57,1197.26 779.4,1193.09 774.61,1191.1 C771.29,1189.66 767.7,1188.97 764.08,1189.1 C754.13,1193.48 744.99,1202.04 744.18,1212.99 C743.99,1215.78 745.57,1218.15 745.18,1220.94 C744.6,1225.7 741.01,1228.89 737.62,1232.29 C734.24,1235.66 731.06,1239.05 729.67,1243.82 C728.46,1247.8 729.87,1251.98 731.64,1255.75 C732.84,1258.33 734.24,1260.91 733.24,1263.7 C730.85,1270.26 715.14,1277.02 710.57,1277.02 C708.97,1277.02 707.58,1274.84 706.99,1273.04 C705.2,1267.06 705.6,1260.71 706.79,1254.75 C710.99,1250.2 714.12,1244.76 715.94,1238.84 C718.34,1230.89 717.13,1222.33 720.92,1214.95 C730.85,1198.05 756.31,1164.24 761.28,1159.27 C763.47,1157.09 768.84,1155.88 771.03,1157.29 C781.77,1164.25 788.14,1172.8 798.48,1178.17 C804.05,1180.95 811,1185.14 815.98,1181.16 C820.95,1177.18 821.74,1150.53 824.93,1143.76 C830.76,1132.02 846.87,1116.5 858.01,1103.97 Z M1055.99,938.28 L1051.61,954.98 L1035.69,954.98 L1056.39,876.619 L1074.49,876.619 L1094.39,954.39 L1078.45,954.39 L1074.47,938.28 L1055.99,938.28 Z M1072.29,924.05 L1065.12,892.624 L1058.36,924.05 L1072.29,924.05 Z M1014.19,899.148 C1014.4,893.973 1012.8,887.216 1008.64,885.62 C1004.25,884.025 999.68,885.426 997.69,888.409 C994.29,893.973 994.29,901.534 994.5,913.064 C994.5,920.029 994.71,929.769 996.1,934.361 C999.47,944.89 1008.43,945.5 1012.79,938.93 C1014.99,935.749 1014.99,929.575 1014.79,924.011 L1005.62,924.011 L1005.62,912.468 L1029.3,912.468 L1029.3,954.63 L1017.98,954.63 L1017.98,948.87 C1017.77,949.28 1012.79,953.05 1010.4,954.26 C1006.42,956.03 998.87,956.03 992.72,953.45 C987.54,951.26 982.57,944.31 980.39,935.346 C978.18,925.995 979.17,913.855 979.17,903.519 C979.38,892.572 985.15,880.445 993.1,875.867 C998.68,872.69 1009.01,872.689 1015.56,875.076 C1023.54,877.864 1029.7,889.395 1028.51,899.148 L1014.19,899.148 Z M747.74,877.8 C754.11,881.781 757.48,889.148 756.31,897.695 L743.77,897.695 C743.77,889.745 740.4,885.957 733.63,885.763 C729.45,885.568 724.28,890.341 724.28,893.921 C724.07,904.452 733.42,906.644 739.79,908.629 C744.56,910.029 750.33,913.012 753.12,917.189 C758.28,924.75 758.89,932.701 754.72,943.05 C752.73,948.02 745.17,953.98 738.8,955.38 C731.64,956.98 722.89,956.19 715.73,950.81 C709.96,946.44 707.36,937.88 708.56,930.12 L722.68,930.12 C722.68,933.907 723.28,936.68 724.87,939.07 C726.07,940.66 728.26,943.25 732.03,943.44 C733.53,943.55 735.04,943.33 736.44,942.79 C737.84,942.25 739.11,941.42 740.15,940.33 C741.2,939.25 741.99,937.95 742.48,936.53 C742.96,935.11 743.13,933.598 742.96,932.104 C742.17,919.964 721.89,919.173 714.92,911.417 C706.56,901.871 709.15,886.554 715.91,880.381 C725.27,871.639 738.01,871.639 747.74,877.8 Z M1149.36,929.679 C1149.57,932.662 1149.76,943.21 1150.15,949.96 C1150.36,951.95 1152.36,954.54 1152.36,954.74 L1137.44,954.74 C1135.44,954.74 1135.24,951.16 1135.05,948.19 C1134.65,940.24 1135.43,921.339 1127.69,921.339 L1118.14,921.339 L1118.14,954.55 L1103.23,954.55 L1103.23,876.982 L1130.07,876.982 C1143.6,876.982 1150.36,884.751 1150.36,895.283 C1150.36,902.248 1150.15,910.406 1142.2,913.778 C1146.36,917.746 1148.75,923.712 1149.36,929.679 Z M1128.92,888.175 L1117.78,888.175 L1117.78,909.07 L1125.94,909.07 C1139.45,909.07 1139.26,888.175 1128.92,888.175 Z M793.09,954.88 L778.18,954.88 L778.18,889.433 L761.07,889.433 L761.07,876.308 L810.39,876.308 L810.39,889.433 L793.09,889.433 L793.09,954.88 Z M889.12,954.88 L889.12,889.433 L872.01,889.433 L872.01,876.308 L921.53,876.308 L921.53,889.433 L904.02,889.433 L904.02,954.88 L889.12,954.88 Z M928.25,876.321 L977.77,876.321 L977.77,889.641 L960.26,889.641 L960.26,954.88 L945.36,954.88 L945.36,889.641 L928.25,889.641 L928.25,876.321 Z M1187,889.654 L1187,955.09 L1172.08,955.09 L1172.08,889.654 L1154.99,889.654 L1154.99,876.334 L1204.31,876.334 L1204.31,889.654 L1187,889.654 Z M849.41,932.337 L849.41,876.451 L863.92,876.451 L863.92,930.95 C863.92,963.57 816.58,963.57 816.58,931.948 L816.58,876.451 L831.09,876.451 L831.09,932.545 C831.11,944.68 849.41,944.68 849.41,932.337 Z M882.9,991.03 C887.28,987.25 893.43,982.09 900.59,977.51 C906.95,973.33 899.8,982.89 899.39,986.86 C898.2,997.6 890.04,998.79 881.09,996.81 C879.52,996.41 880.12,993.41 882.9,991.03 Z M1256.94,1241.8 L1636.84,1241.59 L1653.74,1031.54 L1256.94,1031.75 L1256.94,1241.8 Z M936.55,1895.95 L544.722,1895.16 C625.472,1967.77 812.44,2103.61 935.36,2158.71 L936.55,1895.95 Z M652.903,1026.01 C645.342,1032.76 630.232,1049.48 627.236,1057.03 C633.811,1059.42 646.729,1065.19 652.903,1069.36 L652.903,1026.01 Z" id="Shape"></path>
        </g>
    </g>
</svg>