<svg width="171" height="42" viewBox="0 0 171 42" fill="none" xmlns="http://www.w3.org/2000/svg">
<g clip-path="url(#clip0_14429_42334)">
<path d="M12.2459 6.2664C12.2459 2.8056 9.50456 0 6.12297 0C2.74138 0 0 2.8056 0 6.2664C0 9.7272 2.74138 12.5328 6.12297 12.5328C9.50456 12.5328 12.2459 9.7272 12.2459 6.2664Z" fill="#FEFEFE"/>
<path d="M26.6424 6.2664C26.6424 2.8056 23.901 0 20.5195 0C17.1379 0 14.3965 2.8056 14.3965 6.2664C14.3965 9.7272 17.1379 12.5328 20.5195 12.5328C23.901 12.5328 26.6424 9.7272 26.6424 6.2664Z" fill="#FEFEFE"/>
<path d="M41.0387 6.2664C41.0387 2.8056 38.2973 0 34.9157 0C31.5341 0 28.7927 2.8056 28.7927 6.2664C28.7927 9.7272 31.5341 12.5328 34.9157 12.5328C38.2973 12.5328 41.0387 9.7272 41.0387 6.2664Z" fill="#FEFEFE"/>
<path d="M26.6424 21.0008C26.6424 17.54 23.901 14.7344 20.5195 14.7344C17.1379 14.7344 14.3965 17.54 14.3965 21.0008C14.3965 24.4616 17.1379 27.2672 20.5195 27.2672C23.901 27.2672 26.6424 24.4616 26.6424 21.0008Z" fill="#FEFEFE"/>
<path d="M26.6424 35.7332C26.6424 32.2724 23.901 29.4668 20.5195 29.4668C17.1379 29.4668 14.3965 32.2724 14.3965 35.7332C14.3965 39.194 17.1379 41.9996 20.5195 41.9996C23.901 41.9996 26.6424 39.194 26.6424 35.7332Z" fill="#FEFEFE"/>
<path d="M54.089 16.1104H48.3928V12.6328H63.3309V16.1104H57.6183V32.104H54.089V16.1104Z" fill="#FEFEFE"/>
<path d="M72.2775 23.7726C71.982 21.9582 70.8165 20.5806 68.8795 20.5806C66.8111 20.5806 65.6128 21.975 65.2024 23.7726H72.2775ZM75.2651 27.939C74.9696 29.0478 73.246 32.391 68.8795 32.391C64.8084 32.391 61.8208 29.3334 61.8208 25.0158C61.8208 20.6982 64.8084 17.6406 68.8795 17.6406C72.6878 17.6406 75.6755 20.6982 75.6755 24.7302C75.6755 25.1502 75.6262 25.4862 75.5934 25.7382L75.5441 26.1246H65.2188C65.5143 28.107 66.9588 29.4678 68.8959 29.4678C70.5046 29.4678 71.4731 28.527 71.7522 27.939H75.2651Z" fill="#FEFEFE"/>
<path d="M81.1089 12.6328H77.7109V32.104H81.1089V12.6328Z" fill="#FEFEFE"/>
<path d="M93.6011 23.7726C93.3057 21.9582 92.1402 20.5806 90.2031 20.5806C88.1348 20.5806 86.9364 21.975 86.5261 23.7726H93.6011ZM96.6052 27.939C96.3097 29.0478 94.5861 32.391 90.2195 32.391C86.1485 32.391 83.1609 29.3334 83.1609 25.0158C83.1609 20.6982 86.1485 17.6406 90.2195 17.6406C94.0279 17.6406 97.0155 20.6982 97.0155 24.7302C97.0155 25.1502 96.9663 25.4862 96.9335 25.7382L96.8842 26.1246H86.5589C86.8544 28.107 88.2989 29.4678 90.236 29.4678C91.8447 29.4678 92.8132 28.527 93.0922 27.939H96.6052Z" fill="#FEFEFE"/>
<path d="M100.134 21.2692H97.8198V17.926H100.134V15.8428C100.134 13.726 101.464 12.3652 103.532 12.3652H106.52V15.4228H104.485C103.943 15.4228 103.532 15.8428 103.532 16.3972V17.926H106.52V21.2692H103.532V32.122H100.134V21.2692Z" fill="#FEFEFE"/>
<path d="M123.198 17.9262H126.317L126.596 19.3206H126.728C126.974 19.0182 127.302 18.7326 127.647 18.4806C128.271 18.0606 129.223 17.6406 130.536 17.6406C133.655 17.6406 135.969 20.0094 135.969 23.6214V32.1054H132.571V23.907C132.571 22.0926 131.34 20.8494 129.584 20.8494C127.811 20.8494 126.596 22.1094 126.596 23.907V32.1054H123.198V17.9262Z" fill="#FEFEFE"/>
<path d="M157.605 26.8302C157.162 29.0478 155.454 32.391 151.088 32.391C147.017 32.391 144.029 29.3334 144.029 25.0158C144.029 20.6982 147.017 17.6406 151.088 17.6406C155.471 17.6406 157.178 20.9838 157.605 23.067H154.207C153.911 22.2606 153.123 20.8494 151.088 20.8494C149.052 20.8494 147.411 22.5126 147.411 25.0158C147.411 27.519 149.036 29.1822 151.088 29.1822C153.14 29.1822 153.911 27.7878 154.207 26.8134H157.605V26.8302Z" fill="#FEFEFE"/>
<path d="M167.602 25.989H164.746C162.973 25.989 162.169 26.6778 162.169 27.8035C162.169 28.9123 162.956 29.6179 164.335 29.6179C166.404 29.6179 167.602 28.3915 167.602 26.4259V25.989ZM167.865 30.7266H167.733C167.487 31.029 167.159 31.3146 166.781 31.5666C166.125 31.9866 165.173 32.4066 163.794 32.4066C160.642 32.4066 158.771 30.4242 158.771 28.089C158.771 25.3002 160.675 23.3514 164.483 23.3514H167.602V23.0659C167.602 21.5035 166.683 20.4283 165.156 20.4283C163.629 20.4283 162.842 21.4362 162.71 22.2426H159.312C159.608 19.9074 161.463 17.6562 165.156 17.6562C168.685 17.6562 171 20.0418 171 23.0826V32.121H168.144L167.865 30.7266Z" fill="#FEFEFE"/>
<path d="M138.58 17.9254H141.978V32.1046H138.58V17.9254ZM142.289 13.8262C142.289 12.6838 141.387 11.7598 140.27 11.7598C139.154 11.7598 138.251 12.6838 138.251 13.8262C138.251 14.9686 139.154 15.8926 140.27 15.8926C141.387 15.8758 142.289 14.9686 142.289 13.8262Z" fill="#FEFEFE"/>
<path d="M117.765 25.0157C117.765 22.5125 116.139 20.8493 114.087 20.8493C112.052 20.8493 110.41 22.5125 110.41 25.0157C110.41 27.5189 112.036 29.1821 114.087 29.1821C116.139 29.1821 117.765 27.5189 117.765 25.0157ZM121.163 25.0157C121.163 29.3333 118.175 32.3909 114.087 32.3909C110.016 32.3909 107.029 29.3333 107.029 25.0157C107.029 20.6981 110.016 17.6405 114.087 17.6405C118.175 17.6405 121.163 20.6981 121.163 25.0157ZM115.319 11.9453H118.848L115.581 15.9773H112.725L115.319 11.9453Z" fill="#FEFEFE"/>
</g>
<defs>
<clipPath id="clip0_14429_42334">
<rect width="171" height="42" fill="white"/>
</clipPath>
</defs>
</svg>
